# Blender v2.56 (sub 0) OBJ File: 'arrow.blend'
# www.blender.org
mtllib arrow.mtl
o Cube
v 0.386232 -0.096220 0.174812
v -0.751204 -0.160020 0.249471
v -0.751204 -0.160020 -0.149264
v 0.386232 -0.096220 -0.086483
v 0.386232 0.165075 0.174812
v -0.751204 0.238715 0.249471
v -0.751204 0.238715 -0.149264
v 0.386232 0.165075 -0.086483
v 0.386232 0.165075 0.174812
v 0.386232 0.165075 -0.086483
v 0.386232 -0.096220 -0.086483
v 0.386232 -0.096220 0.174812
v 0.314032 -0.231577 -0.224366
v 0.314032 -0.231577 0.283269
v 0.314032 0.276058 0.283269
v 0.314032 0.276058 -0.224366
v 0.938654 0.022240 0.029452
vn 0.056003 -0.998431 0.000000
vn 0.064606 0.997911 0.000000
vn 0.065497 0.000000 0.997853
vn -1.000000 -0.000000 -0.000000
vn 0.055111 -0.000000 -0.998480
vn 0.000000 0.000000 0.000000
vn -0.882327 0.470638 -0.000000
vn -0.832420 -0.000000 -0.554145
vn -0.885894 -0.000000 0.463887
vn -0.838230 -0.545317 -0.000000
vn 0.376459 0.926433 0.000000
vn 0.376459 -0.000000 -0.926433
vn 0.376459 -0.000000 0.926433
vn 0.376459 -0.926433 0.000000
usemtl Material.001
s off
f 1//1 2//1 3//1
f 1//1 3//1 4//1
f 5//2 8//2 7//2
f 5//2 7//2 6//2
f 1//3 5//3 6//3
f 1//3 6//3 2//3
f 2//4 6//4 7//4
f 2//4 7//4 3//4
f 3//5 7//5 8//5
f 3//5 8//5 4//5
f 8//6 5//6 9//6
f 8//6 9//6 10//6
f 4//6 8//6 10//6
f 4//6 10//6 11//6
f 5//6 1//6 12//6
f 5//6 12//6 9//6
f 1//6 4//6 11//6
f 1//6 11//6 12//6
f 12//7 11//7 13//7
f 12//7 13//7 14//7
f 9//8 12//8 14//8
f 9//8 14//8 15//8
f 11//9 10//9 16//9
f 11//9 16//9 13//9
f 10//10 9//10 15//10
f 10//10 15//10 16//10
f 16//11 15//11 17//11
f 13//12 16//12 17//12
f 15//13 14//13 17//13
f 14//14 13//14 17//14
