# Blender v2.56 (sub 0) OBJ File: 'boat.blend'
# www.blender.org
mtllib sail.mtl
o Plane_Plane.001
v 1.465944 3.149555 -0.028662
v 1.448657 1.009308 -0.021153
v -0.248206 1.276343 0.000234
v 0.614028 1.137421 -0.011812
v 1.457353 2.062957 -0.018441
v 0.482571 2.357431 0.080477
v 1.063987 1.068436 -0.016819
v 0.183652 1.203483 -0.006995
v 1.460186 2.613334 -0.020685
v 1.450785 1.568296 -0.013862
v 1.042175 2.989271 0.022521
v -0.062604 1.747634 0.020167
v 1.022173 2.229440 0.156551
v 1.020030 1.496006 0.190582
v 0.496887 1.603100 0.177818
v 1.413357 1.014726 -0.020758
v 0.822298 1.105452 -0.014143
v -0.029538 1.236207 -0.004609
v 0.397661 1.170633 -0.009390
v 1.461498 2.868050 -0.021723
v 1.458687 2.322155 -0.019498
v 1.438703 1.214104 -0.015841
v 1.456131 1.825699 -0.017474
v 1.351069 3.181971 -0.040547
v 0.760461 2.665787 0.075958
v -0.287589 1.387955 0.005699
v 0.216268 2.049788 0.053252
v 0.749731 2.280427 0.141858
v 1.366044 2.139326 0.050052
v 0.776111 1.174866 0.024768
v 1.378722 1.799649 0.066533
v 0.494037 1.971245 0.158311
v 0.520723 1.214078 0.028466
v 1.027480 2.598214 0.119472
v 1.381694 2.824998 -0.008812
v 1.369810 2.469585 0.033819
v 1.023684 1.838610 0.200242
v 0.760865 1.522387 0.211423
v 0.757120 1.886624 0.212569
v -0.000054 1.317558 0.009975
v 0.215764 1.695655 0.109335
v 0.258727 1.269948 0.019114
v 1.032997 1.133584 0.024512
v 1.357105 1.480030 0.077834
v 1.408499 1.092876 -0.004095
v 1.454742 1.008374 -0.021221
v 1.259358 1.045652 -0.016532
v 0.924885 1.089706 -0.015291
v 0.719824 1.121182 -0.012996
v -0.134640 1.252378 -0.003419
v 0.076157 1.219983 -0.005792
v 0.291720 1.186895 -0.008205
v 0.505212 1.154124 -0.010594
v 1.463347 2.999083 -0.022113
v 1.460847 2.741538 -0.021207
v 1.459456 2.471563 -0.020107
v 1.458007 2.190086 -0.018959
v 1.435192 1.048789 -0.019440
v 1.445476 1.433016 -0.010819
v 1.455492 1.701496 -0.016967
v 1.456768 1.949470 -0.017978
v 1.466971 3.286142 -0.024043
v 1.214842 3.116244 -0.031847
v 0.621516 2.511609 0.078217
v 0.901071 2.826254 0.060408
v -0.371322 1.302224 0.000764
v -0.198212 1.580861 0.008815
v 0.349937 2.205585 0.074419
v 0.075688 1.899095 0.029761
v 0.615276 2.318700 0.112409
v 0.885213 2.247877 0.160852
v 1.168987 2.204382 0.138396
v 1.454175 2.141362 -0.011825
v 0.663418 1.132388 -0.010391
v 0.894152 1.323136 0.129599
v 1.150821 1.642284 0.192461
v 1.453508 1.994138 -0.012165
v 0.484265 2.161493 0.122533
v 0.499308 1.789889 0.176280
v 0.500328 1.410237 0.136155
v 0.535069 1.150712 -0.009090
v 1.036799 2.800578 0.071782
v 1.022042 2.408376 0.143322
v 1.240873 2.913207 0.012428
v 1.457414 2.817525 -0.020177
v 1.172887 2.379317 0.129864
v 1.455210 2.647675 -0.016617
v 1.017336 1.653650 0.211454
v 1.024074 2.038157 0.180270
v 0.627726 1.553703 0.206613
v 0.892039 1.504146 0.201988
v 0.627068 1.737975 0.208921
v 0.888298 2.058873 0.187552
v 0.016691 1.230809 -0.003974
v -0.050590 1.564108 0.040722
v 0.357633 1.654008 0.139569
v 0.079579 1.729788 0.067265
v 0.143807 1.210991 -0.005269
v 0.362399 1.453963 0.113252
v 1.065596 1.068494 -0.015698
v 1.020304 1.316230 0.126844
v 1.444841 1.522143 -0.003152
v 1.170935 1.477391 0.165860
v 1.293574 1.039323 -0.015685
v 1.442547 1.347436 -0.008799
v 0.887456 2.438248 0.130797
v 0.753945 2.473678 0.108215
v 0.892877 2.627893 0.105867
v 1.215277 2.744594 0.057651
v 1.370240 2.654708 0.014738
v 1.189319 2.560484 0.105158
v 1.456029 2.297212 -0.016229
v 1.367197 2.297756 0.044668
v 1.456534 2.462720 -0.016222
v 1.458003 2.971322 -0.022252
v 1.378737 2.982923 -0.020108
v 1.458728 3.145031 -0.029658
v 1.176150 2.012859 0.153640
v 1.375815 1.970701 0.056361
v 1.168340 1.819653 0.178085
v 0.891255 1.669905 0.218677
v 0.758202 1.693136 0.225227
v 0.890559 1.859493 0.208765
v 0.617248 2.115553 0.164859
v 0.752010 2.082802 0.185338
v 0.625836 1.925910 0.196541
v 0.632772 1.363120 0.142110
v 0.765454 1.334816 0.136883
v 0.650237 1.192280 0.028214
v -0.111686 1.250208 -0.003234
v -0.249510 1.278301 0.000453
v -0.136498 1.344192 0.003388
v 0.090687 1.548790 0.080547
v 0.223246 1.503470 0.096448
v 0.130099 1.297667 0.016325
v 0.403268 1.170415 -0.008303
v 0.273667 1.190492 -0.007003
v 0.390853 1.242184 0.025599
v 0.362395 1.833317 0.133479
v 0.217712 1.868895 0.081865
v 0.358661 2.013994 0.108977
v 0.906769 1.093253 -0.014179
v 0.786620 1.112508 -0.012670
v 0.897643 1.152600 0.022531
v 1.206817 1.322871 0.107909
v 1.392196 1.314607 0.033929
v 1.237449 1.109205 0.020326
v 1.445490 1.010975 -0.020940
v 1.434502 1.012116 -0.020600
v 1.435366 1.101209 -0.016222
v 1.455222 1.681907 -0.012716
v 1.364828 1.630378 0.084842
v 1.455016 1.833568 -0.010604
v 1.456768 1.949470 -0.017978
v 1.455492 1.701496 -0.016967
v 1.445476 1.433016 -0.010819
v 1.435192 1.048789 -0.019440
v 1.458007 2.190086 -0.018959
v 1.459456 2.471563 -0.020107
v 1.460847 2.741538 -0.021207
v 1.463347 2.999083 -0.022113
v 1.456131 1.825699 -0.017474
v 1.438703 1.214104 -0.015841
v 1.458687 2.322155 -0.019498
v 1.461498 2.868050 -0.021723
v 1.450785 1.568296 -0.013862
v 1.460186 2.613334 -0.020685
v 1.457353 2.062957 -0.018441
v 1.448657 1.009308 -0.021153
v 1.465944 3.149555 -0.028662
vt 0.000000 0.000000
vt 1.000000 0.000000
vt 1.000000 1.000000
vt 0.588649 0.470432
vt 0.665770 0.521274
vt 0.583412 0.530286
vt 0.505747 0.481635
vt 0.512030 0.421012
vt 0.506542 0.541448
vt 0.596835 0.409921
vt 0.671472 0.461365
vt 0.681859 0.400514
vt 0.760222 0.452660
vt 0.841417 0.504694
vt 0.756080 0.513423
vt 0.606488 0.348801
vt 0.521173 0.359470
vt 0.530527 0.297958
vt 0.743757 0.594876
vt 0.821662 0.596809
vt 0.793896 0.665682
vt 0.717855 0.671920
vt 0.660022 0.593246
vt 0.636600 0.683756
vt 0.580738 0.596948
vt 0.722079 0.711885
vt 0.796269 0.699642
vt 0.492895 0.704206
vt 0.569774 0.740782
vt 0.501666 0.750797
vt 0.561663 0.694058
vt 0.641765 0.727735
vt 0.505438 0.606504
vt 0.863416 0.688833
vt 0.863054 0.653320
vt 0.937571 0.668489
vt 0.948111 0.624340
vt 1.000000 0.666002
vt 0.911182 0.572943
vt 0.423555 0.620348
vt 0.340684 0.564485
vt 0.424605 0.553473
vt 0.420315 0.718053
vt 0.341185 0.626149
vt 0.346697 0.727221
vt 0.267202 0.627749
vt 0.199740 0.583673
vt 0.264280 0.572285
vt 0.437557 0.761314
vt 0.263320 0.519834
vt 0.195456 0.530713
vt 0.195155 0.476124
vt 0.264475 0.464050
vt 0.341267 0.508026
vt 0.343933 0.451026
vt 0.424854 0.494864
vt 0.274136 0.406979
vt 0.198980 0.420014
vt 0.208846 0.361337
vt 0.431934 0.376218
vt 0.362965 0.333123
vt 0.444348 0.314030
vt 0.426250 0.435902
vt 0.351966 0.393568
vt 0.286853 0.348742
vt 0.116458 0.433642
vt 0.031374 0.394439
vt 0.126360 0.374904
vt 0.112679 0.490578
vt 0.030177 0.451797
vt 0.030702 0.507124
vt 0.000000 0.404506
vt 0.000007 0.461623
vt 0.115396 0.545012
vt 0.005950 0.116422
vt 0.042877 0.160887
vt 0.005499 0.173554
vt 0.009071 0.054574
vt 0.045394 0.099433
vt 0.054218 0.030592
vt 0.144275 0.056129
vt 0.227260 0.101898
vt 0.148410 0.122998
vt 0.011222 0.000000
vt 0.153248 0.187663
vt 0.230258 0.167972
vt 0.225901 0.231802
vt 0.143559 0.248478
vt 0.042501 0.219136
vt 0.038323 0.276950
vt 0.004252 0.230199
vt 0.133056 0.312306
vt 0.218999 0.296810
vt 0.001034 0.345791
vt 0.002627 0.288054
vt 0.035070 0.336281
vt 0.295600 0.285213
vt 0.300902 0.216937
vt 0.372940 0.269071
vt 0.379534 0.200712
vt 0.455952 0.249757
vt 0.304063 0.149380
vt 0.001179 0.569870
vt 0.034441 0.620117
vt 0.004210 0.640179
vt 0.000001 0.516506
vt 0.030526 0.560806
vt 0.121519 0.598013
vt 0.136322 0.676252
vt 0.200821 0.647306
vt 0.210511 0.732981
vt 0.141398 0.762248
vt 0.041552 0.709879
vt 0.046381 0.787327
vt 0.012378 0.740836
vt 0.157999 0.789360
vt 0.233176 0.781993
vt 0.010689 0.806156
vt 0.052007 0.800920
vt 0.010893 0.811722
vt 0.302184 0.780999
vt 0.273973 0.726976
vt 0.367754 0.771883
vn -0.549944 -0.003082 -0.835170
vn -0.558977 -0.022065 -0.828852
vn -0.362743 -0.029237 -0.931394
vn -0.701834 -0.006439 -0.712302
vn -0.789087 0.001831 -0.614246
vn -0.849910 0.000183 -0.526872
vn -0.758568 -0.012116 -0.651448
vn -0.876614 0.003388 -0.481155
vn -0.668844 -0.009033 -0.743339
vn -0.746239 -0.001740 -0.665639
vn -0.240242 -0.029389 -0.970244
vn 0.022217 -0.018311 -0.999573
vn -0.269051 -0.005554 -0.963103
vn 0.171728 -0.030091 -0.984680
vn -0.091769 0.016938 -0.995605
vn -0.992065 0.011658 -0.124943
vn 0.285043 -0.009095 -0.958464
vn -0.791162 -0.011841 -0.611469
vn -0.995941 0.038057 0.081271
vn -0.895810 0.054537 -0.441023
vn -0.870357 0.037416 -0.490982
vn -0.071261 0.406293 -0.910947
vn -0.995148 0.014985 0.097018
vn 0.044923 -0.030732 0.998505
vn -0.004273 0.140568 -0.990051
vn 0.085299 0.703787 -0.705252
vn 0.004761 -0.041688 0.999115
vn -0.644459 0.042695 -0.763421
vn -0.917478 0.037996 0.395917
vn -0.932768 0.029939 -0.359142
vn -0.992462 0.003418 -0.122410
vn -0.998077 0.037599 -0.048799
vn -0.871609 -0.005310 -0.490158
vn -0.930998 -0.001923 -0.364940
vn 0.090457 -0.146153 -0.985107
vn -0.036409 -0.177679 -0.983398
vn -0.041780 -0.112796 -0.992737
vn 0.023865 -0.147038 -0.988830
vn 0.117527 -0.195837 -0.973540
vn -0.089846 -0.096713 -0.991241
vn 0.154241 -0.165593 -0.974029
vn 0.102115 -0.186468 -0.977111
vn 0.165014 -0.188177 -0.968169
vn 0.074953 -0.235298 -0.968993
vn -0.082247 -0.243233 -0.966460
vn -0.053346 -0.236183 -0.970214
vn 0.173772 -0.174474 -0.969176
vn 0.173894 -0.203619 -0.963469
vn 0.208411 -0.194311 -0.958525
vn -0.233009 -0.199042 -0.951872
vn -0.168859 -0.203681 -0.964354
vn -0.190619 -0.100894 -0.976440
vn -0.326121 -0.103977 -0.939573
vn -0.258919 -0.141453 -0.955473
vn -0.431410 -0.063234 -0.899930
vn -0.266854 -0.070315 -0.961150
vn -0.503037 -0.046602 -0.862972
vn -0.481796 -0.030580 -0.875729
vn -0.289682 -0.068056 -0.954680
vn -0.054140 -0.102206 -0.993286
vn 0.055879 -0.054628 -0.996918
vn -0.088168 -0.186346 -0.978515
vn -0.314615 -0.090945 -0.944823
vn -0.121250 -0.079897 -0.989380
vn -0.122776 -0.105869 -0.986755
vn -0.546281 -0.055116 -0.835749
vn -0.314951 -0.070376 -0.946471
vn -0.582354 -0.039186 -0.811975
vn -0.302469 0.035340 -0.952483
vn -0.088260 0.240761 -0.966552
vn -0.104129 0.030000 -0.994110
vn -0.055391 0.019501 -0.998260
vn -0.046236 0.242103 -0.969115
vn 0.016633 0.222663 -0.974731
vn 0.024964 -0.001312 -0.999664
vn -0.061739 -0.080325 -0.994842
vn 0.030671 -0.095828 -0.994903
vn -0.042970 -0.125736 -0.991119
vn 0.169897 -0.029542 -0.985015
vn 0.160588 0.161229 -0.973754
vn 0.257942 0.090243 -0.961913
vn 0.173345 -0.196722 -0.964995
vn 0.265694 -0.129551 -0.955290
vn 0.248024 -0.189184 -0.950072
vn 0.059328 -0.166540 -0.984222
vn 0.165899 -0.110355 -0.979919
vn 0.256050 -0.050111 -0.965331
vn 0.117344 0.439619 -0.890469
vn 0.117283 0.503769 -0.855800
vn 0.214057 0.355083 -0.909970
vn 0.026460 0.473159 -0.880551
vn 0.074374 0.552843 -0.829951
vn 0.057802 0.546220 -0.835627
vn 0.096103 0.673391 -0.732994
vn 0.074923 0.586963 -0.806116
vn 0.002991 0.455123 -0.890408
vn 0.042512 0.248726 -0.967620
vn 0.101199 0.166784 -0.980773
vn 0.067446 0.426130 -0.902127
vn 0.035615 0.237037 -0.970824
vn 0.056032 0.073550 -0.995697
vn -0.001190 0.039338 -0.999207
vn 0.137669 0.001282 -0.990448
vn 0.263497 -0.128178 -0.956084
vn 0.226600 0.026368 -0.973601
vn -0.035005 -0.124180 -0.991638
vn 0.213935 0.113437 -0.970214
vn 0.282723 -0.125034 -0.950987
vn 0.235725 -0.042329 -0.970885
vn 0.178655 0.203894 -0.962523
vn 0.093753 0.255348 -0.962279
vn 0.113041 0.327067 -0.938200
vn 0.078951 0.516953 -0.852351
vn 0.222999 0.269662 -0.936766
vn 0.241920 0.041475 -0.969390
vn 0.108371 0.687704 -0.717826
vn 0.098605 0.609027 -0.786950
vn 0.135899 0.415662 -0.899289
vn 0.278298 -0.093783 -0.955870
vn 0.300699 -0.153294 -0.941313
vn 0.307871 -0.143590 -0.940519
vn 0.322825 -0.148076 -0.934782
vn 0.295114 -0.170232 -0.940153
vn 0.299509 -0.182287 -0.936491
vn 0.093234 0.635029 -0.766808
vn 0.036103 0.499191 -0.865719
vn 0.101352 0.760674 -0.641133
vn 0.078127 0.556780 -0.826960
vn 0.069430 0.524247 -0.848689
vn -0.039430 0.419233 -0.907010
vn -0.221320 0.323496 -0.919950
vn -0.280496 0.201300 -0.938475
vn -0.565203 0.098422 -0.819025
vn -0.490402 0.137181 -0.860622
vn -0.071169 0.389172 -0.918393
vn -0.300363 0.159917 -0.940306
vn 0.079531 0.836940 -0.541429
vn -0.022553 0.594653 -0.803644
vn -0.596423 0.026063 -0.802210
vn 0.100406 0.718833 -0.687857
vn 0.068667 0.504105 -0.860897
vn 0.039125 0.321146 -0.946196
vn 0.092166 0.650197 -0.754143
vn -0.019074 0.025239 -0.999481
vn -0.205512 -0.978240 0.028047
vn 0.124271 0.848537 -0.514267
vn 0.122654 0.834315 -0.537400
vn 0.107395 0.743278 -0.660268
vn 0.125614 0.850429 -0.510819
vn 0.091739 0.646413 -0.757408
vn 0.131138 0.970885 0.200323
vn 0.080905 0.588366 -0.804498
vn 0.159978 0.985534 -0.055574
usemtl pins
s 1
f 9/1/1 87/2/2 85/3/3
f 112/1/4 21/2/5 57/3/6
f 57/1/6 73/2/7 112/3/4
f 73/1/7 57/2/6 5/3/8
f 21/1/5 112/2/4 114/3/9
f 87/1/2 9/2/1 56/3/10
f 56/1/10 114/2/9 87/3/2
f 114/1/9 56/2/10 21/3/5
f 115/1/11 20/2/12 55/3/13
f 55/1/13 85/2/3 115/3/11
f 85/1/3 55/2/13 9/3/1
f 20/1/12 115/2/11 117/3/14
f 62/1/15 1/2/16 54/3/17
f 54/1/17 117/2/14 62/3/15
f 117/1/14 54/2/17 20/3/12
f 5/1/8 77/2/18 73/3/7
f 10/1/19 105/2/20 102/3/21
f 148/1/22 22/2/23 58/3/24
f 58/1/24 46/2/25 148/3/22
f 16/1/26 148/2/22 46/3/25
f 46/1/25 58/2/24 2/3/27
f 22/1/23 148/2/22 150/3/28
f 105/1/20 10/2/19 59/3/29
f 59/1/29 150/2/28 105/3/20
f 150/1/28 59/2/29 22/3/23
f 151/1/30 23/2/31 60/3/32
f 60/1/32 102/2/21 151/3/30
f 102/1/21 60/2/32 10/3/19
f 23/1/31 151/2/30 153/3/33
f 77/1/18 5/2/8 61/3/34
f 61/1/34 153/2/33 77/3/18
f 153/1/33 61/2/34 23/3/31
usemtl Material.001_wood.png.001
f 106/4/35 34/5/36 83/6/37
f 83/6/37 71/7/38 106/4/35
f 28/8/39 106/4/35 71/7/38
f 71/7/38 83/6/37 13/9/40
f 106/4/35 28/8/39 107/10/41
f 107/10/41 108/11/42 106/4/35
f 34/5/36 106/4/35 108/11/42
f 108/11/42 107/10/41 25/12/43
f 65/13/44 11/14/45 82/15/46
f 82/15/46 108/11/42 65/13/44
f 25/12/43 65/13/44 108/11/42
f 108/11/42 82/15/46 34/5/36
f 64/16/47 25/12/43 107/10/41
f 107/10/41 70/17/48 64/16/47
f 6/18/49 64/16/47 70/17/48
f 70/17/48 107/10/41 28/8/39
f 109/19/50 34/5/36 82/15/46
f 82/15/46 84/20/51 109/19/50
f 35/21/52 109/19/50 84/20/51
f 84/20/51 82/15/46 11/14/45
f 109/19/50 35/21/52 110/22/53
f 110/22/53 111/23/54 109/19/50
f 34/5/36 109/19/50 111/23/54
f 111/23/54 110/22/53 36/24/55
f 86/25/56 13/9/40 83/6/37
f 83/6/37 111/23/54 86/25/56
f 36/24/55 86/25/56 111/23/54
f 111/23/54 83/6/37 34/5/36
f 87/26/2 36/24/55 110/22/53
f 110/22/53 85/27/3 87/26/2
f 85/27/3 110/22/53 35/21/52
f 29/28/57 112/29/4 73/30/7
f 112/29/4 29/28/57 113/31/58
f 113/31/58 114/32/9 112/29/4
f 114/32/9 113/31/58 36/24/55
f 36/24/55 87/26/2 114/32/9
f 86/25/56 36/24/55 113/31/58
f 113/31/58 72/33/59 86/25/56
f 13/9/40 86/25/56 72/33/59
f 72/33/59 113/31/58 29/28/57
f 35/21/52 115/34/11 85/27/3
f 115/34/11 35/21/52 116/35/60
f 116/35/60 117/36/14 115/34/11
f 117/36/14 116/35/60 24/37/61
f 24/37/61 62/38/15 117/36/14
f 63/39/62 24/37/61 116/35/60
f 116/35/60 84/20/51 63/39/62
f 11/14/45 63/39/62 84/20/51
f 84/20/51 116/35/60 35/21/52
f 118/40/63 37/41/64 89/42/65
f 89/42/65 72/33/59 118/40/63
f 29/28/57 118/40/63 72/33/59
f 72/33/59 89/42/65 13/9/40
f 118/40/63 29/28/57 119/43/66
f 119/43/66 120/44/67 118/40/63
f 37/41/64 118/40/63 120/44/67
f 120/44/67 119/43/66 31/45/68
f 76/46/69 14/47/70 88/48/71
f 88/48/71 120/44/67 76/46/69
f 31/45/68 76/46/69 120/44/67
f 120/44/67 88/48/71 37/41/64
f 77/49/18 31/45/68 119/43/66
f 119/43/66 73/30/7 77/49/18
f 73/30/7 119/43/66 29/28/57
f 121/50/72 37/41/64 88/48/71
f 88/48/71 91/51/73 121/50/72
f 38/52/74 121/50/72 91/51/73
f 91/51/73 88/48/71 14/47/70
f 121/50/72 38/52/74 122/53/75
f 122/53/75 123/54/76 121/50/72
f 37/41/64 121/50/72 123/54/76
f 123/54/76 122/53/75 39/55/77
f 93/56/78 13/9/40 89/42/65
f 89/42/65 123/54/76 93/56/78
f 39/55/77 93/56/78 123/54/76
f 123/54/76 89/42/65 37/41/64
f 92/57/79 39/55/77 122/53/75
f 122/53/75 90/58/80 92/57/79
f 15/59/81 92/57/79 90/58/80
f 90/58/80 122/53/75 38/52/74
f 124/60/82 32/61/83 78/62/84
f 78/62/84 70/17/48 124/60/82
f 28/8/39 124/60/82 70/17/48
f 70/17/48 78/62/84 6/18/49
f 124/60/82 28/8/39 125/63/85
f 125/63/85 126/64/86 124/60/82
f 32/61/83 124/60/82 126/64/86
f 126/64/86 125/63/85 39/55/77
f 92/57/79 15/59/81 79/65/87
f 79/65/87 126/64/86 92/57/79
f 39/55/77 92/57/79 126/64/86
f 126/64/86 79/65/87 32/61/83
f 93/56/78 39/55/77 125/63/85
f 125/63/85 71/7/38 93/56/78
f 13/9/40 93/56/78 71/7/38
f 71/7/38 125/63/85 28/8/39
f 127/66/88 33/67/89 80/68/90
f 80/68/90 90/58/80 127/66/88
f 38/52/74 127/66/88 90/58/80
f 90/58/80 80/68/90 15/59/81
f 127/66/88 38/52/74 128/69/91
f 128/69/91 129/70/92 127/66/88
f 33/67/89 127/66/88 129/70/92
f 129/70/92 128/69/91 30/71/93
f 81/72/94 129/70/92 74/73/95
f 30/71/93 74/73/95 129/70/92
f 129/70/92 81/72/94 33/67/89
f 75/74/96 30/71/93 128/69/91
f 128/69/91 91/51/73 75/74/96
f 14/47/70 75/74/96 91/51/73
f 91/51/73 128/69/91 38/52/74
f 130/75/97 40/76/98 94/77/99
f 131/78/100 132/79/101 130/75/97
f 40/76/98 130/75/97 132/79/101
f 132/79/101 131/78/100 26/80/102
f 67/81/103 12/82/104 95/83/105
f 95/83/105 132/79/101 67/81/103
f 26/80/102 67/81/103 132/79/101
f 132/79/101 95/83/105 40/76/98
f 66/84/106 26/80/102 131/78/100
f 133/85/107 40/76/98 95/83/105
f 95/83/105 97/86/108 133/85/107
f 41/87/109 133/85/107 97/86/108
f 97/86/108 95/83/105 12/82/104
f 133/85/107 41/87/109 134/88/110
f 134/88/110 135/89/111 133/85/107
f 40/76/98 133/85/107 135/89/111
f 135/89/111 134/88/110 42/90/112
f 94/77/99 135/89/111 98/91/113
f 42/90/112 98/91/113 135/89/111
f 135/89/111 94/77/99 40/76/98
f 99/92/114 42/90/112 134/88/110
f 134/88/110 96/93/115 99/92/114
f 15/59/81 99/92/114 96/93/115
f 96/93/115 134/88/110 41/87/109
f 136/94/116 33/67/89 81/72/94
f 137/95/117 138/96/118 136/94/116
f 33/67/89 136/94/116 138/96/118
f 138/96/118 137/95/117 42/90/112
f 99/92/114 15/59/81 80/68/90
f 80/68/90 138/96/118 99/92/114
f 42/90/112 99/92/114 138/96/118
f 138/96/118 80/68/90 33/67/89
f 98/91/113 42/90/112 137/95/117
f 139/97/119 32/61/83 79/65/87
f 79/65/87 96/93/115 139/97/119
f 41/87/109 139/97/119 96/93/115
f 96/93/115 79/65/87 15/59/81
f 139/97/119 41/87/109 140/98/120
f 140/98/120 141/99/121 139/97/119
f 32/61/83 139/97/119 141/99/121
f 141/99/121 140/98/120 27/100/122
f 68/101/123 6/18/49 78/62/84
f 78/62/84 141/99/121 68/101/123
f 27/100/122 68/101/123 141/99/121
f 141/99/121 78/62/84 32/61/83
f 69/102/124 27/100/122 140/98/120
f 140/98/120 97/86/108 69/102/124
f 12/82/104 69/102/124 97/86/108
f 97/86/108 140/98/120 41/87/109
f 142/103/125 43/104/126 100/105/127
f 143/106/128 144/107/129 142/103/125
f 43/104/126 142/103/125 144/107/129
f 144/107/129 143/106/128 30/71/93
f 75/74/96 14/47/70 101/108/130
f 101/108/130 144/107/129 75/74/96
f 30/71/93 75/74/96 144/107/129
f 144/107/129 101/108/130 43/104/126
f 74/73/95 30/71/93 143/106/128
f 145/109/131 43/104/126 101/108/130
f 101/108/130 103/110/132 145/109/131
f 44/111/133 145/109/131 103/110/132
f 103/110/132 101/108/130 14/47/70
f 145/109/131 44/111/133 146/112/134
f 146/112/134 147/113/135 145/109/131
f 43/104/126 145/109/131 147/113/135
f 147/113/135 146/112/134 45/114/136
f 100/105/127 147/113/135 104/115/137
f 45/114/136 104/115/137 147/113/135
f 147/113/135 100/105/127 43/104/126
f 105/116/20 45/114/136 146/112/134
f 146/112/134 102/117/21 105/116/20
f 102/117/21 146/112/134 44/111/133
f 149/118/138 150/119/28 148/120/22
f 150/119/28 149/118/138 45/114/136
f 45/114/136 105/116/20 150/119/28
f 104/115/137 45/114/136 149/118/138
f 44/111/133 151/121/30 102/117/21
f 151/121/30 44/111/133 152/122/139
f 152/122/139 153/123/33 151/121/30
f 153/123/33 152/122/139 31/45/68
f 31/45/68 77/49/18 153/123/33
f 76/46/69 31/45/68 152/122/139
f 152/122/139 103/110/132 76/46/69
f 14/47/70 76/46/69 103/110/132
f 103/110/132 152/122/139 44/111/133
usemtl bompins
f 74/1/95 4/2/140 81/3/94
f 94/1/99 51/2/141 130/3/97
f 18/1/142 130/2/97 51/3/141
f 51/1/141 94/2/99 8/3/143
f 130/1/97 18/2/142 131/3/100
f 131/1/100 50/2/144 66/3/106
f 3/1/145 66/2/106 50/3/144
f 50/1/144 131/2/100 18/3/142
f 98/1/113 8/2/143 94/3/99
f 81/1/94 53/2/146 136/3/116
f 19/1/147 136/2/116 53/3/146
f 53/1/146 81/2/94 4/3/140
f 136/1/116 19/2/147 137/3/117
f 137/1/117 52/2/148 98/3/113
f 8/1/143 98/2/113 52/3/148
f 52/1/148 137/2/117 19/3/147
f 100/1/127 48/2/149 142/3/125
f 17/1/150 142/2/125 48/3/149
f 48/1/149 100/2/127 7/3/151
f 142/1/125 17/2/150 143/3/128
f 143/1/128 49/2/152 74/3/95
f 4/1/140 74/2/95 49/3/152
f 49/1/152 143/2/128 17/3/150
f 104/1/137 7/2/151 100/3/127
f 148/1/22 16/2/26 149/3/138
f 149/1/138 47/2/153 104/3/137
f 7/1/151 104/2/137 47/3/153
f 47/1/153 149/2/138 16/3/26
