# Blender v2.56 (sub 0) OBJ File: 'untitled.blend'
# www.blender.org
mtllib cloth.mtl
o Mesh_Mesh_Mesh_Plane
v 0.000000 -0.375000 -0.750000
v 0.000000 -0.500000 -0.750000
v 0.000000 -0.500000 -0.625000
v 0.000000 -0.375000 -0.625000
v 0.000000 -0.250000 -0.750000
v 0.000000 -0.500000 -0.500000
v 0.000000 -0.250000 -0.875000
v 0.000000 -0.250000 -1.000000
v 0.000000 -0.375000 -0.875000
v 0.000000 -0.375000 -1.000000
v 0.000000 -0.500000 -1.000000
v 0.000000 -0.500000 -0.875000
v 0.000000 -0.125000 -1.000000
v 0.000000 -0.125000 -0.875000
v 0.000000 -0.000000 -1.000000
v 0.000000 -0.625000 -0.750000
v 0.000000 -0.625000 -0.875000
v 0.000000 -0.750000 -0.750000
v 0.000000 -0.750000 -0.625000
v 0.000000 -0.750000 -0.500000
v 0.000000 -0.625000 -0.625000
v 0.000000 -0.625000 -0.500000
v 0.000000 -0.875000 -0.500000
v 0.000000 -0.875000 -0.625000
v 0.000000 -1.000000 -0.500000
v 0.000000 -0.875000 -0.250000
v 0.000000 -1.000000 -0.250000
v 0.000000 -1.000000 -0.125000
v 0.000000 -0.875000 -0.125000
v 0.000000 -0.750000 -0.250000
v 0.000000 -1.000000 0.000000
v 0.000000 -0.750000 -0.375000
v 0.000000 -0.875000 -0.375000
v 0.000000 -1.000000 -0.375000
v 0.000000 -0.625000 -0.375000
v 0.000000 -0.875000 -0.750000
v 0.000000 -1.000000 -0.750000
v 0.000000 -1.000000 -0.625000
v 0.000000 -0.750000 -0.875000
v 0.000000 -0.875000 -0.875000
v 0.000000 -0.750000 -1.000000
v 0.000000 -0.875000 -1.000000
v 0.000000 -1.000000 -1.000000
v 0.000000 -1.000000 -0.875000
v 0.000000 -0.625000 -1.000000
v 0.000000 -0.625000 -0.250000
v 0.000000 -0.500000 -0.250000
v 0.000000 -0.500000 -0.375000
v 0.000000 -0.750000 -0.125000
v 0.000000 -0.625000 -0.125000
v 0.000000 -0.750000 0.000000
v 0.000000 -0.625000 0.000000
v 0.000000 -0.500000 0.000000
v 0.000000 -0.500000 -0.125000
v 0.000000 -0.875000 0.000000
v 0.000000 -0.375000 -0.250000
v 0.000000 -0.375000 -0.125000
v 0.000000 -0.250000 -0.250000
v 0.000000 -0.250000 -0.375000
v 0.000000 -0.375000 -0.375000
v 0.000000 -0.250000 -0.500000
v 0.000000 -0.375000 -0.500000
v 0.000000 -0.125000 -0.500000
v 0.000000 -0.125000 -0.375000
v 0.000000 -0.000000 -0.500000
v 0.000000 -0.125000 -0.750000
v 0.000000 -0.000000 -0.750000
v 0.000000 -0.000000 -0.875000
v 0.000000 -0.250000 -0.625000
v 0.000000 -0.125000 -0.625000
v 0.000000 -0.000000 -0.625000
v 0.000000 -0.125000 -0.250000
v 0.000000 -0.000000 -0.250000
v 0.000000 -0.000000 -0.375000
v 0.000000 -0.250000 -0.125000
v 0.000000 -0.125000 -0.125000
v 0.000000 -0.250000 0.000000
v 0.000000 -0.125000 0.000000
v 0.000000 0.000000 0.000000
v 0.000000 -0.000000 -0.125000
v 0.000000 -0.375000 0.000000
v 0.000000 0.625000 -0.750000
v 0.000000 0.500000 -0.750000
v 0.000000 0.500000 -0.625000
v 0.000000 0.625000 -0.625000
v 0.000000 0.750000 -0.750000
v 0.000000 0.500000 -0.500000
v 0.000000 0.750000 -0.875000
v 0.000000 0.625000 -0.875000
v 0.000000 0.750000 -1.000000
v 0.000000 0.625000 -1.000000
v 0.000000 0.500000 -1.000000
v 0.000000 0.500000 -0.875000
v 0.000000 0.875000 -1.000000
v 0.000000 0.875000 -0.875000
v 0.000000 1.000000 -1.000000
v 0.000000 0.375000 -0.750000
v 0.000000 0.375000 -0.875000
v 0.000000 0.250000 -0.750000
v 0.000000 0.250000 -0.625000
v 0.000000 0.375000 -0.625000
v 0.000000 0.250000 -0.500000
v 0.000000 0.375000 -0.500000
v 0.000000 0.125000 -0.500000
v 0.000000 0.125000 -0.625000
v 0.000000 0.125000 -0.250000
v 0.000000 0.125000 -0.125000
v 0.000000 0.250000 -0.250000
v 0.000000 0.250000 -0.375000
v 0.000000 0.125000 -0.375000
v 0.000000 0.375000 -0.375000
v 0.000000 0.125000 -0.750000
v 0.000000 0.250000 -0.875000
v 0.000000 0.125000 -0.875000
v 0.000000 0.250000 -1.000000
v 0.000000 0.125000 -1.000000
v 0.000000 0.375000 -1.000000
v 0.000000 -0.375000 0.250000
v 0.000000 -0.500000 0.250000
v 0.000000 -0.500000 0.375000
v 0.000000 -0.375000 0.375000
v 0.000000 -0.250000 0.250000
v 0.000000 -0.500000 0.500000
v 0.000000 -0.250000 0.125000
v 0.000000 -0.375000 0.125000
v 0.000000 -0.500000 0.125000
v 0.000000 -0.125000 0.125000
v 0.000000 -0.625000 0.250000
v 0.000000 -0.625000 0.125000
v 0.000000 -0.750000 0.250000
v 0.000000 -0.750000 0.375000
v 0.000000 -0.625000 0.375000
v 0.000000 -0.750000 0.500000
v 0.000000 -0.625000 0.500000
v 0.000000 -0.875000 0.500000
v 0.000000 -0.875000 0.375000
v 0.000000 -1.000000 0.500000
v 0.000000 -0.875000 0.750000
v 0.000000 -1.000000 0.750000
v 0.000000 -1.000000 0.875000
v 0.000000 -0.875000 0.875000
v 0.000000 -0.750000 0.750000
v 0.000000 -1.000000 1.000000
v 0.000000 -0.750000 0.625000
v 0.000000 -0.875000 0.625000
v 0.000000 -1.000000 0.625000
v 0.000000 -0.625000 0.625000
v 0.000000 -0.875000 0.250000
v 0.000000 -1.000000 0.250000
v 0.000000 -1.000000 0.375000
v 0.000000 -0.750000 0.125000
v 0.000000 -0.875000 0.125000
v 0.000000 -1.000000 0.125000
vt 0.588904 0.662123
vt 0.557657 0.693376
vt 0.526404 0.662127
vt 0.557651 0.630875
vt 0.620151 0.630870
vt 0.495151 0.630879
vt 0.651403 0.662117
vt 0.682656 0.693363
vt 0.620157 0.693370
vt 0.651410 0.724617
vt 0.620164 0.755870
vt 0.588910 0.724623
vt 0.713902 0.662112
vt 0.682649 0.630865
vt 0.745147 0.630860
vt 0.526408 0.724630
vt 0.557662 0.755876
vt 0.495160 0.755883
vt 0.463907 0.724635
vt 0.432653 0.693386
vt 0.495155 0.693381
vt 0.463902 0.662133
vt 0.401403 0.724640
vt 0.432657 0.755888
vt 0.370154 0.755893
vt 0.338896 0.662140
vt 0.307646 0.693394
vt 0.276392 0.662143
vt 0.307642 0.630889
vt 0.370146 0.630887
vt 0.245138 0.630892
vt 0.401399 0.662136
vt 0.370149 0.693390
vt 0.338900 0.724643
vt 0.432649 0.630883
vt 0.463912 0.787137
vt 0.432663 0.818391
vt 0.401408 0.787142
vt 0.526415 0.787131
vt 0.495166 0.818385
vt 0.557669 0.818379
vt 0.526420 0.849633
vt 0.495172 0.880888
vt 0.463917 0.849640
vt 0.588916 0.787125
vt 0.401396 0.599634
vt 0.432646 0.568381
vt 0.463899 0.599630
vt 0.338893 0.599636
vt 0.370143 0.568383
vt 0.307640 0.568385
vt 0.338891 0.537133
vt 0.370142 0.505881
vt 0.401394 0.537131
vt 0.276389 0.599638
vt 0.463895 0.537130
vt 0.432643 0.505880
vt 0.495144 0.505878
vt 0.526395 0.537126
vt 0.495147 0.568378
vt 0.557647 0.568375
vt 0.526399 0.599627
vt 0.588895 0.537124
vt 0.557644 0.505875
vt 0.620143 0.505873
vt 0.651398 0.599618
vt 0.682645 0.568367
vt 0.713896 0.599613
vt 0.588899 0.599622
vt 0.620146 0.568371
vt 0.651394 0.537120
vt 0.526393 0.474627
vt 0.557642 0.443377
vt 0.588892 0.474625
vt 0.463894 0.474629
vt 0.495142 0.443378
vt 0.432643 0.443379
vt 0.463893 0.412129
vt 0.495142 0.380879
vt 0.526392 0.412128
vt 0.401393 0.474630
vt 0.838879 0.412116
vt 0.807632 0.443366
vt 0.776382 0.412119
vt 0.807629 0.380869
vt 0.870125 0.380866
vt 0.745132 0.380872
vt 0.901374 0.412112
vt 0.870128 0.443362
vt 0.932624 0.443359
vt 0.901378 0.474609
vt 0.870132 0.505859
vt 0.838882 0.474613
vt 0.963871 0.412109
vt 0.932621 0.380862
vt 0.995117 0.380859
vt 0.776385 0.474616
vt 0.807635 0.505862
vt 0.745138 0.505866
vt 0.713888 0.474619
vt 0.745135 0.443369
vt 0.682638 0.443372
vt 0.713885 0.412122
vt 0.651390 0.474623
vt 0.682640 0.505870
vt 0.588890 0.412127
vt 0.557640 0.380878
vt 0.620138 0.380877
vt 0.651388 0.412125
vt 0.620140 0.443375
vt 0.682635 0.380875
vt 0.713892 0.537117
vt 0.776389 0.537112
vt 0.745142 0.568363
vt 0.807639 0.568359
vt 0.776393 0.599609
vt 0.838886 0.537109
vt 0.338891 0.412129
vt 0.307640 0.443379
vt 0.276389 0.412127
vt 0.307640 0.380876
vt 0.370142 0.380878
vt 0.245138 0.380875
vt 0.401393 0.412129
vt 0.370142 0.443379
vt 0.338891 0.474630
vt 0.432642 0.380879
vt 0.276388 0.474631
vt 0.307639 0.505882
vt 0.245136 0.505882
vt 0.213884 0.474630
vt 0.245136 0.443378
vt 0.182632 0.443377
vt 0.213885 0.412126
vt 0.151378 0.474629
vt 0.182630 0.505882
vt 0.120125 0.505881
vt 0.088875 0.412120
vt 0.057620 0.443371
vt 0.026369 0.412115
vt 0.057624 0.380864
vt 0.120130 0.380869
vt -0.004883 0.380859
vt 0.151381 0.412123
vt 0.120126 0.443374
vt 0.088872 0.474626
vt 0.182634 0.380872
vt 0.213883 0.537135
vt 0.182631 0.568387
vt 0.151378 0.537134
vt 0.276388 0.537134
vt 0.245135 0.568386
vt 0.213885 0.599639
vn -1.000000 0.000000 0.000000
usemtl Material.001_wood.png_wood.png
s 1
f 1/1/1 2/2/1 3/3/1
f 4/4/1 1/1/1 3/3/1
f 5/5/1 1/1/1 4/4/1
f 4/4/1 3/3/1 6/6/1
f 7/7/1 8/8/1 9/9/1
f 9/9/1 1/1/1 7/7/1
f 7/7/1 1/1/1 5/5/1
f 2/2/1 1/1/1 9/9/1
f 10/10/1 11/11/1 12/12/1
f 12/12/1 9/9/1 10/10/1
f 8/8/1 10/10/1 9/9/1
f 12/12/1 2/2/1 9/9/1
f 13/13/1 8/8/1 7/7/1
f 7/7/1 14/14/1 13/13/1
f 15/15/1 13/13/1 14/14/1
f 14/14/1 7/7/1 5/5/1
f 16/16/1 2/2/1 12/12/1
f 12/12/1 17/17/1 16/16/1
f 18/18/1 16/16/1 17/17/1
f 17/17/1 12/12/1 11/11/1
f 19/19/1 20/20/1 21/21/1
f 21/21/1 16/16/1 19/19/1
f 18/18/1 19/19/1 16/16/1
f 21/21/1 2/2/1 16/16/1
f 22/22/1 6/6/1 3/3/1
f 3/3/1 21/21/1 22/22/1
f 20/20/1 22/22/1 21/21/1
f 3/3/1 2/2/1 21/21/1
f 23/23/1 20/20/1 19/19/1
f 19/19/1 24/24/1 23/23/1
f 25/25/1 23/23/1 24/24/1
f 24/24/1 19/19/1 18/18/1
f 26/26/1 27/27/1 28/28/1
f 28/28/1 29/29/1 26/26/1
f 30/30/1 26/26/1 29/29/1
f 29/29/1 28/28/1 31/31/1
f 26/26/1 30/30/1 32/32/1
f 32/32/1 33/33/1 26/26/1
f 27/27/1 26/26/1 33/33/1
f 33/33/1 32/32/1 20/20/1
f 23/23/1 25/25/1 34/34/1
f 34/34/1 33/33/1 23/23/1
f 20/20/1 23/23/1 33/33/1
f 33/33/1 34/34/1 27/27/1
f 22/22/1 20/20/1 32/32/1
f 32/32/1 35/35/1 22/22/1
f 6/6/1 22/22/1 35/35/1
f 35/35/1 32/32/1 30/30/1
f 36/36/1 37/37/1 38/38/1
f 38/38/1 24/24/1 36/36/1
f 18/18/1 36/36/1 24/24/1
f 24/24/1 38/38/1 25/25/1
f 36/36/1 18/18/1 39/39/1
f 39/39/1 40/40/1 36/36/1
f 37/37/1 36/36/1 40/40/1
f 40/40/1 39/39/1 41/41/1
f 42/42/1 43/43/1 44/44/1
f 44/44/1 40/40/1 42/42/1
f 41/41/1 42/42/1 40/40/1
f 40/40/1 44/44/1 37/37/1
f 45/45/1 41/41/1 39/39/1
f 39/39/1 17/17/1 45/45/1
f 11/11/1 45/45/1 17/17/1
f 17/17/1 39/39/1 18/18/1
f 46/46/1 47/47/1 48/48/1
f 48/48/1 35/35/1 46/46/1
f 30/30/1 46/46/1 35/35/1
f 35/35/1 48/48/1 6/6/1
f 46/46/1 30/30/1 49/49/1
f 49/49/1 50/50/1 46/46/1
f 47/47/1 46/46/1 50/50/1
f 50/50/1 49/49/1 51/51/1
f 52/52/1 53/53/1 54/54/1
f 54/54/1 50/50/1 52/52/1
f 51/51/1 52/52/1 50/50/1
f 50/50/1 54/54/1 47/47/1
f 55/55/1 51/51/1 49/49/1
f 49/49/1 29/29/1 55/55/1
f 31/31/1 55/55/1 29/29/1
f 29/29/1 49/49/1 30/30/1
f 56/56/1 47/47/1 54/54/1
f 54/54/1 57/57/1 56/56/1
f 58/58/1 56/56/1 57/57/1
f 57/57/1 54/54/1 53/53/1
f 56/56/1 58/58/1 59/59/1
f 59/59/1 60/60/1 56/56/1
f 47/47/1 56/56/1 60/60/1
f 60/60/1 59/59/1 61/61/1
f 62/62/1 6/6/1 48/48/1
f 48/48/1 60/60/1 62/62/1
f 61/61/1 62/62/1 60/60/1
f 60/60/1 48/48/1 47/47/1
f 63/63/1 61/61/1 59/59/1
f 59/59/1 64/64/1 63/63/1
f 65/65/1 63/63/1 64/64/1
f 64/64/1 59/59/1 58/58/1
f 66/66/1 67/67/1 68/68/1
f 68/68/1 14/14/1 66/66/1
f 5/5/1 66/66/1 14/14/1
f 14/14/1 68/68/1 15/15/1
f 66/66/1 5/5/1 69/69/1
f 69/69/1 70/70/1 66/66/1
f 67/67/1 66/66/1 70/70/1
f 70/70/1 69/69/1 61/61/1
f 63/63/1 65/65/1 71/71/1
f 71/71/1 70/70/1 63/63/1
f 61/61/1 63/63/1 70/70/1
f 70/70/1 71/71/1 67/67/1
f 62/62/1 61/61/1 69/69/1
f 69/69/1 4/4/1 62/62/1
f 6/6/1 62/62/1 4/4/1
f 4/4/1 69/69/1 5/5/1
f 72/72/1 73/73/1 74/74/1
f 74/74/1 64/64/1 72/72/1
f 58/58/1 72/72/1 64/64/1
f 64/64/1 74/74/1 65/65/1
f 72/72/1 58/58/1 75/75/1
f 75/75/1 76/76/1 72/72/1
f 73/73/1 72/72/1 76/76/1
f 76/76/1 75/75/1 77/77/1
f 78/78/1 79/79/1 80/80/1
f 80/80/1 76/76/1 78/78/1
f 77/77/1 78/78/1 76/76/1
f 76/76/1 80/80/1 73/73/1
f 81/81/1 77/77/1 75/75/1
f 75/75/1 57/57/1 81/81/1
f 53/53/1 81/81/1 57/57/1
f 57/57/1 75/75/1 58/58/1
f 82/82/1 83/83/1 84/84/1
f 84/84/1 85/85/1 82/82/1
f 86/86/1 82/82/1 85/85/1
f 85/85/1 84/84/1 87/87/1
f 82/82/1 86/86/1 88/88/1
f 88/88/1 89/89/1 82/82/1
f 83/83/1 82/82/1 89/89/1
f 89/89/1 88/88/1 90/90/1
f 91/91/1 92/92/1 93/93/1
f 93/93/1 89/89/1 91/91/1
f 90/90/1 91/91/1 89/89/1
f 89/89/1 93/93/1 83/83/1
f 94/94/1 90/90/1 88/88/1
f 88/88/1 95/95/1 94/94/1
f 96/96/1 94/94/1 95/95/1
f 95/95/1 88/88/1 86/86/1
f 97/97/1 83/83/1 93/93/1
f 93/93/1 98/98/1 97/97/1
f 99/99/1 97/97/1 98/98/1
f 98/98/1 93/93/1 92/92/1
f 97/97/1 99/99/1 100/100/1
f 100/100/1 101/101/1 97/97/1
f 83/83/1 97/97/1 101/101/1
f 101/101/1 100/100/1 102/102/1
f 103/103/1 87/87/1 84/84/1
f 84/84/1 101/101/1 103/103/1
f 102/102/1 103/103/1 101/101/1
f 101/101/1 84/84/1 83/83/1
f 104/104/1 102/102/1 100/100/1
f 100/100/1 105/105/1 104/104/1
f 65/65/1 104/104/1 105/105/1
f 105/105/1 100/100/1 99/99/1
f 106/106/1 73/73/1 80/80/1
f 80/80/1 107/107/1 106/106/1
f 108/108/1 106/106/1 107/107/1
f 107/107/1 80/80/1 79/79/1
f 106/106/1 108/108/1 109/109/1
f 109/109/1 110/110/1 106/106/1
f 73/73/1 106/106/1 110/110/1
f 110/110/1 109/109/1 102/102/1
f 104/104/1 65/65/1 74/74/1
f 74/74/1 110/110/1 104/104/1
f 102/102/1 104/104/1 110/110/1
f 110/110/1 74/74/1 73/73/1
f 103/103/1 102/102/1 109/109/1
f 109/109/1 111/111/1 103/103/1
f 87/87/1 103/103/1 111/111/1
f 111/111/1 109/109/1 108/108/1
f 112/112/1 67/67/1 71/71/1
f 71/71/1 105/105/1 112/112/1
f 99/99/1 112/112/1 105/105/1
f 105/105/1 71/71/1 65/65/1
f 112/112/1 99/99/1 113/113/1
f 113/113/1 114/114/1 112/112/1
f 67/67/1 112/112/1 114/114/1
f 114/114/1 113/113/1 115/115/1
f 116/116/1 15/15/1 68/68/1
f 68/68/1 114/114/1 116/116/1
f 115/115/1 116/116/1 114/114/1
f 114/114/1 68/68/1 67/67/1
f 117/117/1 115/115/1 113/113/1
f 113/113/1 98/98/1 117/117/1
f 92/92/1 117/117/1 98/98/1
f 98/98/1 113/113/1 99/99/1
f 118/118/1 119/119/1 120/120/1
f 120/120/1 121/121/1 118/118/1
f 122/122/1 118/118/1 121/121/1
f 121/121/1 120/120/1 123/123/1
f 118/118/1 122/122/1 124/124/1
f 124/124/1 125/125/1 118/118/1
f 119/119/1 118/118/1 125/125/1
f 125/125/1 124/124/1 77/77/1
f 81/81/1 53/53/1 126/126/1
f 126/126/1 125/125/1 81/81/1
f 77/77/1 81/81/1 125/125/1
f 125/125/1 126/126/1 119/119/1
f 78/78/1 77/77/1 124/124/1
f 124/124/1 127/127/1 78/78/1
f 79/79/1 78/78/1 127/127/1
f 127/127/1 124/124/1 122/122/1
f 128/128/1 119/119/1 126/126/1
f 126/126/1 129/129/1 128/128/1
f 130/130/1 128/128/1 129/129/1
f 129/129/1 126/126/1 53/53/1
f 128/128/1 130/130/1 131/131/1
f 131/131/1 132/132/1 128/128/1
f 119/119/1 128/128/1 132/132/1
f 132/132/1 131/131/1 133/133/1
f 134/134/1 123/123/1 120/120/1
f 120/120/1 132/132/1 134/134/1
f 133/133/1 134/134/1 132/132/1
f 132/132/1 120/120/1 119/119/1
f 135/135/1 133/133/1 131/131/1
f 131/131/1 136/136/1 135/135/1
f 137/137/1 135/135/1 136/136/1
f 136/136/1 131/131/1 130/130/1
f 138/138/1 139/139/1 140/140/1
f 140/140/1 141/141/1 138/138/1
f 142/142/1 138/138/1 141/141/1
f 141/141/1 140/140/1 143/143/1
f 138/138/1 142/142/1 144/144/1
f 144/144/1 145/145/1 138/138/1
f 139/139/1 138/138/1 145/145/1
f 145/145/1 144/144/1 133/133/1
f 135/135/1 137/137/1 146/146/1
f 146/146/1 145/145/1 135/135/1
f 133/133/1 135/135/1 145/145/1
f 145/145/1 146/146/1 139/139/1
f 134/134/1 133/133/1 144/144/1
f 144/144/1 147/147/1 134/134/1
f 123/123/1 134/134/1 147/147/1
f 147/147/1 144/144/1 142/142/1
f 148/148/1 149/149/1 150/150/1
f 150/150/1 136/136/1 148/148/1
f 130/130/1 148/148/1 136/136/1
f 136/136/1 150/150/1 137/137/1
f 148/148/1 130/130/1 151/151/1
f 151/151/1 152/152/1 148/148/1
f 149/149/1 148/148/1 152/152/1
f 152/152/1 151/151/1 51/51/1
f 55/55/1 31/31/1 153/153/1
f 153/153/1 152/152/1 55/55/1
f 51/51/1 55/55/1 152/152/1
f 152/152/1 153/153/1 149/149/1
f 52/52/1 51/51/1 151/151/1
f 151/151/1 129/129/1 52/52/1
f 53/53/1 52/52/1 129/129/1
f 129/129/1 151/151/1 130/130/1
