# Blender v2.56 (sub 0) OBJ File: 'boat.blend'
# www.blender.org
mtllib sail.mtl
o Plane_Plane.001
v 1.104888 3.237532 -0.020161
v 1.433551 1.123832 -0.021462
v -0.284314 1.130313 -0.019040
v 0.589095 1.123832 -0.021462
v 1.282265 2.166580 -0.014416
v 0.273058 2.309242 0.074167
v 1.044339 1.123913 -0.021433
v 0.153652 1.123832 -0.021462
v 1.201592 2.711024 -0.014416
v 1.350769 1.676626 -0.011902
v 0.730933 3.018964 0.025360
v -0.172592 1.624178 0.004976
v 0.824957 2.264129 0.156092
v 0.933733 1.538670 0.187150
v 0.400571 1.565259 0.168640
v 1.397835 1.123832 -0.021462
v 0.799818 1.123832 -0.021462
v -0.062048 1.123832 -0.021462
v 0.370181 1.123832 -0.021462
v 1.164257 2.962995 -0.014416
v 1.244273 2.422983 -0.014416
v 1.392584 1.324716 -0.015445
v 1.317042 1.931880 -0.014416
v 0.999141 3.254839 -0.033316
v 0.500983 2.656197 0.074167
v -0.340232 1.234628 -0.013592
v 0.056828 1.964934 0.042564
v 0.548113 2.273293 0.138389
v 1.179676 2.227822 0.053300
v 0.743207 1.185213 0.017179
v 1.243556 1.893908 0.068565
v 0.342118 1.928820 0.150579
v 0.484801 1.185218 0.018019
v 0.774665 2.629649 0.120559
v 1.091770 2.908265 -0.002621
v 1.133473 2.554921 0.038439
v 0.885260 1.877803 0.198228
v 0.673351 1.525321 0.205035
v 0.614378 1.884765 0.207599
v -0.045411 1.208628 -0.006204
v 0.109435 1.614503 0.097215
v 0.217481 1.200762 0.005799
v 1.003369 1.183369 0.019791
v 1.270556 1.574647 0.078327
v 1.380993 1.200243 -0.004544
v 1.439708 1.123832 -0.021462
v 1.240891 1.131021 -0.018931
v 0.903612 1.123832 -0.021462
v 0.696137 1.123832 -0.021462
v -0.168393 1.123869 -0.021448
v 0.044891 1.123832 -0.021462
v 0.262992 1.123832 -0.021462
v 0.478998 1.123832 -0.021462
v 1.144513 3.092444 -0.014234
v 1.182801 2.837846 -0.014416
v 1.222373 2.570781 -0.014416
v 1.263631 2.292338 -0.014416
v 1.414234 1.160804 -0.019750
v 1.366011 1.542090 -0.009465
v 1.335247 1.809015 -0.014416
v 1.298900 2.054317 -0.014416
v 1.090912 3.373350 -0.016666
v 0.882929 3.170966 -0.026455
v 0.387021 2.482719 0.074167
v 0.615784 2.836218 0.060923
v -0.409930 1.137220 -0.019859
v -0.281195 1.438836 -0.008647
v 0.165071 2.139076 0.065934
v -0.058995 1.794802 0.016810
v 0.409741 2.290902 0.107507
v 0.686746 2.261557 0.158850
v 0.974065 2.261731 0.139572
v 1.267156 2.243556 -0.007524
v 0.638659 1.126339 -0.019478
v 0.836220 1.349063 0.123991
v 1.040789 1.703078 0.191161
v 1.288836 2.097939 -0.008462
v 0.303993 2.115589 0.115452
v 0.374643 1.750261 0.167881
v 0.433693 1.375392 0.126247
v 0.509009 1.124979 -0.019619
v 0.753702 2.831357 0.073796
v 0.797827 2.441049 0.143581
v 0.938971 2.973973 0.017308
v 1.167869 2.912427 -0.013121
v 0.951474 2.435281 0.131789
v 1.191419 2.744189 -0.010270
v 0.906923 1.693959 0.208622
v 0.855593 2.075214 0.179064
v 0.537063 1.536111 0.198779
v 0.805870 1.527239 0.197076
v 0.508431 1.718136 0.201820
v 0.718173 2.075056 0.184825
v -0.015545 1.125504 -0.020302
v -0.133103 1.444481 0.024934
v 0.255637 1.594679 0.128955
v -0.029878 1.627830 0.053678
v 0.113112 1.125200 -0.020176
v 0.290988 1.397826 0.101893
v 1.045908 1.124208 -0.020292
v 0.961982 1.361385 0.122699
v 1.351778 1.630044 -0.001448
v 1.085979 1.543298 0.164137
v 1.275659 1.129949 -0.017706
v 1.376078 1.457046 -0.007824
v 0.660414 2.450236 0.129588
v 0.523331 2.465138 0.105573
v 0.637277 2.638650 0.105486
v 0.938753 2.803171 0.061549
v 1.106024 2.738074 0.020107
v 0.940503 2.616984 0.108006
v 1.245393 2.397907 -0.011279
v 1.156839 2.384623 0.048566
v 1.220783 2.561575 -0.010602
v 1.145078 3.064531 -0.014570
v 1.064908 3.063955 -0.013317
v 1.098716 3.232042 -0.021209
v 1.010032 2.073425 0.154130
v 1.214846 2.062595 0.059046
v 1.031354 1.881132 0.177705
v 0.779763 1.690863 0.214421
v 0.644661 1.693609 0.219492
v 0.750422 1.878207 0.205262
v 0.441930 2.090104 0.159161
v 0.579866 2.078053 0.181098
v 0.478839 1.903778 0.190181
v 0.571678 1.348873 0.133576
v 0.707168 1.341048 0.129802
v 0.616117 1.183316 0.019208
v -0.145379 1.125205 -0.021001
v -0.285903 1.132050 -0.018829
v -0.184234 1.214299 -0.014295
v 0.008414 1.450536 0.066362
v 0.146130 1.425753 0.083646
v 0.086176 1.208670 0.001603
v 0.375743 1.124460 -0.020309
v 0.244591 1.124643 -0.020459
v 0.352210 1.193320 0.013732
v 0.233208 1.772668 0.123641
v 0.085383 1.786190 0.070466
v 0.202378 1.950828 0.099823
v 0.885157 1.124585 -0.020550
v 0.763467 1.125387 -0.020382
v 0.866727 1.181648 0.016288
v 1.145527 1.396343 0.105994
v 1.330821 1.416715 0.034175
v 1.209187 1.190303 0.017921
v 1.430166 1.124998 -0.021280
v 1.419129 1.124458 -0.021065
v 1.406417 1.212625 -0.016319
v 1.337906 1.789588 -0.010247
v 1.255302 1.724385 0.086029
v 1.314670 1.939448 -0.007528
v 1.298900 2.054317 -0.014416
v 1.335247 1.809015 -0.014416
v 1.366011 1.542090 -0.009465
v 1.414234 1.160804 -0.019750
v 1.263631 2.292338 -0.014416
v 1.222373 2.570781 -0.014416
v 1.182801 2.837846 -0.014416
v 1.144513 3.092444 -0.014234
v 1.317042 1.931880 -0.014416
v 1.392584 1.324716 -0.015445
v 1.244273 2.422983 -0.014416
v 1.164257 2.962995 -0.014416
v 1.350769 1.676626 -0.011902
v 1.201592 2.711024 -0.014416
v 1.282265 2.166580 -0.014416
v 1.433551 1.123832 -0.021462
v 1.104888 3.237532 -0.020161
vt 0.000000 0.000000
vt 1.000000 0.000000
vt 1.000000 1.000000
vt 0.588649 0.470432
vt 0.665770 0.521274
vt 0.583412 0.530286
vt 0.505747 0.481635
vt 0.512030 0.421012
vt 0.506542 0.541448
vt 0.596835 0.409921
vt 0.671472 0.461365
vt 0.681859 0.400514
vt 0.760222 0.452660
vt 0.841417 0.504694
vt 0.756080 0.513423
vt 0.606488 0.348801
vt 0.521173 0.359470
vt 0.530527 0.297958
vt 0.743757 0.594876
vt 0.821662 0.596809
vt 0.793896 0.665682
vt 0.717855 0.671920
vt 0.660022 0.593246
vt 0.636600 0.683756
vt 0.580738 0.596948
vt 0.722079 0.711885
vt 0.796269 0.699642
vt 0.492895 0.704206
vt 0.569774 0.740782
vt 0.501666 0.750797
vt 0.561663 0.694058
vt 0.641765 0.727735
vt 0.505438 0.606504
vt 0.863416 0.688833
vt 0.863054 0.653320
vt 0.937571 0.668489
vt 0.948111 0.624340
vt 1.000000 0.666002
vt 0.911182 0.572943
vt 0.423555 0.620348
vt 0.340684 0.564485
vt 0.424605 0.553473
vt 0.420315 0.718053
vt 0.341185 0.626149
vt 0.346697 0.727221
vt 0.267202 0.627749
vt 0.199740 0.583673
vt 0.264280 0.572285
vt 0.437557 0.761314
vt 0.263320 0.519834
vt 0.195456 0.530713
vt 0.195155 0.476124
vt 0.264475 0.464050
vt 0.341267 0.508026
vt 0.343933 0.451026
vt 0.424854 0.494864
vt 0.274136 0.406979
vt 0.198980 0.420014
vt 0.208846 0.361337
vt 0.431934 0.376218
vt 0.362965 0.333123
vt 0.444348 0.314030
vt 0.426250 0.435902
vt 0.351966 0.393568
vt 0.286853 0.348742
vt 0.116458 0.433642
vt 0.031374 0.394439
vt 0.126360 0.374904
vt 0.112679 0.490578
vt 0.030177 0.451797
vt 0.030702 0.507124
vt 0.000000 0.404506
vt 0.000007 0.461623
vt 0.115396 0.545012
vt 0.005950 0.116422
vt 0.042877 0.160887
vt 0.005499 0.173554
vt 0.009071 0.054574
vt 0.045394 0.099433
vt 0.054218 0.030592
vt 0.144275 0.056129
vt 0.227260 0.101898
vt 0.148410 0.122998
vt 0.011222 0.000000
vt 0.153248 0.187663
vt 0.230258 0.167972
vt 0.225901 0.231802
vt 0.143559 0.248478
vt 0.042501 0.219136
vt 0.038323 0.276950
vt 0.004252 0.230199
vt 0.133056 0.312306
vt 0.218999 0.296810
vt 0.001034 0.345791
vt 0.002627 0.288054
vt 0.035070 0.336281
vt 0.295600 0.285213
vt 0.300902 0.216937
vt 0.372940 0.269071
vt 0.379534 0.200712
vt 0.455952 0.249757
vt 0.304063 0.149380
vt 0.001179 0.569870
vt 0.034441 0.620117
vt 0.004210 0.640179
vt 0.000001 0.516506
vt 0.030526 0.560806
vt 0.121519 0.598013
vt 0.136322 0.676252
vt 0.200821 0.647306
vt 0.210511 0.732981
vt 0.141398 0.762248
vt 0.041552 0.709879
vt 0.046381 0.787327
vt 0.012378 0.740836
vt 0.157999 0.789360
vt 0.233176 0.781993
vt 0.010689 0.806156
vt 0.052007 0.800920
vt 0.010893 0.811722
vt 0.302184 0.780999
vt 0.273973 0.726976
vt 0.367754 0.771883
vn -0.533830 -0.081637 -0.841609
vn -0.539964 -0.101810 -0.835475
vn -0.344310 -0.078646 -0.935514
vn -0.684805 -0.108707 -0.720542
vn -0.773370 -0.114261 -0.623524
vn -0.834223 -0.125645 -0.536882
vn -0.740684 -0.123264 -0.660421
vn -0.861599 -0.126804 -0.491470
vn -0.651448 -0.106082 -0.751213
vn -0.729942 -0.111057 -0.674398
vn -0.243477 -0.071322 -0.967254
vn -0.075442 -0.022828 -0.996887
vn -0.255745 -0.041017 -0.965850
vn 0.097659 -0.013794 -0.995117
vn 0.052644 0.023835 -0.998321
vn -0.363567 -0.061312 0.929533
vn 0.203345 0.029237 -0.978668
vn -0.773400 -0.128147 -0.620808
vn -0.006043 0.596179 -0.802789
vn -0.002197 0.729698 -0.683737
vn 0.000946 0.684378 -0.729087
vn 0.011994 0.436598 -0.899564
vn 0.000885 0.513627 -0.857997
vn 0.014985 0.257851 -0.966033
vn 0.000397 0.328837 -0.944365
vn 0.000793 0.661000 -0.750359
vn 0.009980 0.245277 -0.969390
vn -0.011628 0.027833 -0.999542
vn -0.004791 -0.122318 -0.992462
vn -0.055025 -0.998230 0.021699
vn 0.009033 0.527848 -0.849269
vn -0.000183 0.860530 -0.509354
vn 0.010712 0.700339 -0.713706
vn 0.000580 0.846370 -0.532548
vn 0.013764 0.621448 -0.783288
vn 0.000671 0.754753 -0.655995
vn -0.008087 0.770928 -0.636860
vn 0.000763 0.862575 -0.505905
vn 0.004273 0.646229 -0.763085
vn 0.000977 0.657216 -0.753685
vn -0.019868 0.978393 0.205756
vn 0.001892 0.566973 -0.823725
vn -0.000366 0.598498 -0.801111
vn -0.042360 0.842433 -0.537095
vn -0.991028 -0.113865 0.069674
vn -0.888791 -0.079379 -0.451338
vn -0.860469 -0.092166 -0.501053
vn -0.121982 0.396039 -0.910062
vn -0.986938 -0.136631 0.085269
vn 0.038026 -0.029328 0.998840
vn -0.014588 0.143986 -0.989441
vn -0.014618 0.712607 -0.701376
vn 0.000000 -0.046236 0.998901
vn -0.103610 0.588946 -0.801477
vn -0.634999 -0.051088 -0.770806
vn -0.916959 -0.103824 0.385174
vn 0.009217 0.998718 -0.049715
vn -0.922483 -0.109775 -0.370006
vn -0.980071 -0.146397 -0.134098
vn -0.991638 -0.113895 -0.060427
vn -0.855220 -0.134617 -0.500412
vn -0.915830 -0.140996 -0.375927
vn 0.122501 -0.125065 -0.984527
vn 0.001801 -0.175481 -0.984466
vn -0.013184 -0.112094 -0.993591
vn 0.056825 -0.136021 -0.989044
vn 0.156621 -0.170141 -0.972869
vn -0.063143 -0.103519 -0.992615
vn 0.188360 -0.134648 -0.972808
vn 0.140019 -0.163182 -0.976592
vn 0.202338 -0.155400 -0.966887
vn 0.120518 -0.215644 -0.968993
vn -0.033723 -0.247322 -0.968322
vn -0.006165 -0.235939 -0.971740
vn 0.208960 -0.140507 -0.967772
vn 0.213416 -0.169347 -0.962157
vn 0.246071 -0.154942 -0.956755
vn -0.189581 -0.226600 -0.955351
vn -0.125340 -0.221412 -0.967071
vn -0.162297 -0.123051 -0.979034
vn -0.296152 -0.146825 -0.943754
vn -0.223884 -0.173559 -0.959014
vn -0.406842 -0.122745 -0.905209
vn -0.242439 -0.104434 -0.964507
vn -0.480575 -0.117374 -0.869045
vn -0.461867 -0.098239 -0.881466
vn -0.265419 -0.105686 -0.958312
vn -0.025056 -0.102847 -0.994354
vn 0.082827 -0.042909 -0.995636
vn -0.048189 -0.192145 -0.980163
vn -0.286691 -0.132176 -0.948851
vn -0.096774 -0.091647 -0.991058
vn -0.094394 -0.117588 -0.988556
vn -0.522324 -0.132511 -0.842372
vn -0.290139 -0.111850 -0.950407
vn -0.560656 -0.122349 -0.818934
vn -0.293771 -0.005432 -0.955840
vn -0.113071 0.230140 -0.966552
vn -0.096469 0.019593 -0.995117
vn -0.046663 0.016633 -0.998749
vn -0.071718 0.237861 -0.968627
vn -0.006531 0.228217 -0.973571
vn 0.035951 0.008209 -0.999298
vn -0.037812 -0.083010 -0.995819
vn 0.055879 -0.084323 -0.994842
vn -0.012421 -0.125095 -0.992035
vn 0.183294 0.002197 -0.983032
vn 0.145024 0.189337 -0.971129
vn 0.251869 0.133854 -0.958434
vn 0.211829 -0.162603 -0.963652
vn 0.292825 -0.082247 -0.952605
vn 0.284341 -0.143895 -0.947844
vn 0.094790 -0.149937 -0.984130
vn 0.191534 -0.078249 -0.978332
vn 0.271340 -0.005158 -0.962462
vn 0.059145 0.457442 -0.887234
vn 0.048952 0.520646 -0.852351
vn 0.167760 0.388653 -0.905942
vn -0.035859 0.476760 -0.878262
vn -0.001160 0.562487 -0.826777
vn -0.016449 0.553453 -0.832698
vn -0.056215 0.455428 -0.888485
vn 0.085543 0.185858 -0.978820
vn 0.055239 0.086947 -0.994659
vn 0.003876 0.044465 -0.998993
vn 0.146825 0.027833 -0.988739
vn 0.290445 -0.081210 -0.953429
vn 0.230720 0.066042 -0.970763
vn 0.204962 0.150182 -0.967162
vn 0.308908 -0.075228 -0.948088
vn 0.250160 -0.000488 -0.968200
vn 0.156285 0.234169 -0.959532
vn 0.064547 0.272134 -0.960082
vn 0.072481 0.345836 -0.935484
vn 0.189856 0.305734 -0.932981
vn 0.243538 0.083254 -0.966308
vn 0.081179 0.436628 -0.895932
vn 0.299875 -0.044984 -0.952910
vn 0.330851 -0.100467 -0.938292
vn 0.336467 -0.089816 -0.937376
vn 0.351878 -0.092044 -0.931486
vn 0.327891 -0.118076 -0.937284
vn 0.334025 -0.129368 -0.933622
vn -0.030457 0.503861 -0.863216
vn -0.001495 0.533616 -0.845698
vn -0.092532 0.413617 -0.905728
vn -0.257637 0.291482 -0.921201
vn -0.297372 0.161840 -0.940916
vn -0.564501 0.016297 -0.825251
vn -0.495987 0.066195 -0.865780
vn -0.119236 0.379162 -0.917600
vn -0.310739 0.117924 -0.943144
vn -0.584552 -0.060060 -0.809107
usemtl pins
s 1
f 9/1/1 87/2/2 85/3/3
f 112/1/4 21/2/5 57/3/6
f 57/1/6 73/2/7 112/3/4
f 73/1/7 57/2/6 5/3/8
f 21/1/5 112/2/4 114/3/9
f 87/1/2 9/2/1 56/3/10
f 56/1/10 114/2/9 87/3/2
f 114/1/9 56/2/10 21/3/5
f 115/1/11 20/2/12 55/3/13
f 55/1/13 85/2/3 115/3/11
f 85/1/3 55/2/13 9/3/1
f 20/1/12 115/2/11 117/3/14
f 62/1/15 1/2/16 54/3/17
f 54/1/17 117/2/14 62/3/15
f 117/1/14 54/2/17 20/3/12
f 5/1/8 77/2/18 73/3/7
f 74/1/19 4/2/20 81/3/21
f 94/1/22 51/2/23 130/3/24
f 18/1/25 130/2/24 51/3/23
f 51/1/23 94/2/22 8/3/26
f 130/1/24 18/2/25 131/3/27
f 131/1/27 50/2/28 66/3/29
f 3/1/30 66/2/29 50/3/28
f 50/1/28 131/2/27 18/3/25
f 98/1/31 8/2/26 94/3/22
f 81/1/21 53/2/32 136/3/33
f 19/1/34 136/2/33 53/3/32
f 53/1/32 81/2/21 4/3/20
f 136/1/33 19/2/34 137/3/35
f 137/1/35 52/2/36 98/3/31
f 8/1/26 98/2/31 52/3/36
f 52/1/36 137/2/35 19/3/34
f 100/1/37 48/2/38 142/3/39
f 17/1/40 142/2/39 48/3/38
f 48/1/38 100/2/37 7/3/41
f 142/1/39 17/2/40 143/3/42
f 143/1/42 49/2/43 74/3/19
f 4/1/20 74/2/19 49/3/43
f 49/1/43 143/2/42 17/3/40
f 104/1/44 7/2/41 100/3/37
f 10/1/45 105/2/46 102/3/47
f 148/1/48 22/2/49 58/3/50
f 58/1/50 46/2/51 148/3/48
f 16/1/52 148/2/48 46/3/51
f 46/1/51 58/2/50 2/3/53
f 148/1/48 16/2/52 149/3/54
f 22/1/49 148/2/48 150/3/55
f 105/1/46 10/2/45 59/3/56
f 59/1/56 150/2/55 105/3/46
f 150/1/55 59/2/56 22/3/49
f 149/1/54 47/2/57 104/3/44
f 7/1/41 104/2/44 47/3/57
f 47/1/57 149/2/54 16/3/52
f 151/1/58 23/2/59 60/3/60
f 60/1/60 102/2/47 151/3/58
f 102/1/47 60/2/60 10/3/45
f 23/1/59 151/2/58 153/3/61
f 77/1/18 5/2/8 61/3/62
f 61/1/62 153/2/61 77/3/18
f 153/1/61 61/2/62 23/3/59
usemtl Material.001_wood.png.001
f 106/4/63 34/5/64 83/6/65
f 83/6/65 71/7/66 106/4/63
f 28/8/67 106/4/63 71/7/66
f 71/7/66 83/6/65 13/9/68
f 106/4/63 28/8/67 107/10/69
f 107/10/69 108/11/70 106/4/63
f 34/5/64 106/4/63 108/11/70
f 108/11/70 107/10/69 25/12/71
f 65/13/72 11/14/73 82/15/74
f 82/15/74 108/11/70 65/13/72
f 25/12/71 65/13/72 108/11/70
f 108/11/70 82/15/74 34/5/64
f 64/16/75 25/12/71 107/10/69
f 107/10/69 70/17/76 64/16/75
f 6/18/77 64/16/75 70/17/76
f 70/17/76 107/10/69 28/8/67
f 109/19/78 34/5/64 82/15/74
f 82/15/74 84/20/79 109/19/78
f 35/21/80 109/19/78 84/20/79
f 84/20/79 82/15/74 11/14/73
f 109/19/78 35/21/80 110/22/81
f 110/22/81 111/23/82 109/19/78
f 34/5/64 109/19/78 111/23/82
f 111/23/82 110/22/81 36/24/83
f 86/25/84 13/9/68 83/6/65
f 83/6/65 111/23/82 86/25/84
f 36/24/83 86/25/84 111/23/82
f 111/23/82 83/6/65 34/5/64
f 87/26/2 36/24/83 110/22/81
f 110/22/81 85/27/3 87/26/2
f 85/27/3 110/22/81 35/21/80
f 29/28/85 112/29/4 73/30/7
f 112/29/4 29/28/85 113/31/86
f 113/31/86 114/32/9 112/29/4
f 114/32/9 113/31/86 36/24/83
f 36/24/83 87/26/2 114/32/9
f 86/25/84 36/24/83 113/31/86
f 113/31/86 72/33/87 86/25/84
f 13/9/68 86/25/84 72/33/87
f 72/33/87 113/31/86 29/28/85
f 35/21/80 115/34/11 85/27/3
f 115/34/11 35/21/80 116/35/88
f 116/35/88 117/36/14 115/34/11
f 117/36/14 116/35/88 24/37/89
f 24/37/89 62/38/15 117/36/14
f 63/39/90 24/37/89 116/35/88
f 116/35/88 84/20/79 63/39/90
f 11/14/73 63/39/90 84/20/79
f 84/20/79 116/35/88 35/21/80
f 118/40/91 37/41/92 89/42/93
f 89/42/93 72/33/87 118/40/91
f 29/28/85 118/40/91 72/33/87
f 72/33/87 89/42/93 13/9/68
f 118/40/91 29/28/85 119/43/94
f 119/43/94 120/44/95 118/40/91
f 37/41/92 118/40/91 120/44/95
f 120/44/95 119/43/94 31/45/96
f 76/46/97 14/47/98 88/48/99
f 88/48/99 120/44/95 76/46/97
f 31/45/96 76/46/97 120/44/95
f 120/44/95 88/48/99 37/41/92
f 77/49/18 31/45/96 119/43/94
f 119/43/94 73/30/7 77/49/18
f 73/30/7 119/43/94 29/28/85
f 121/50/100 37/41/92 88/48/99
f 88/48/99 91/51/101 121/50/100
f 38/52/102 121/50/100 91/51/101
f 91/51/101 88/48/99 14/47/98
f 121/50/100 38/52/102 122/53/103
f 122/53/103 123/54/104 121/50/100
f 37/41/92 121/50/100 123/54/104
f 123/54/104 122/53/103 39/55/105
f 93/56/106 13/9/68 89/42/93
f 89/42/93 123/54/104 93/56/106
f 39/55/105 93/56/106 123/54/104
f 123/54/104 89/42/93 37/41/92
f 92/57/107 39/55/105 122/53/103
f 122/53/103 90/58/108 92/57/107
f 15/59/109 92/57/107 90/58/108
f 90/58/108 122/53/103 38/52/102
f 124/60/110 32/61/111 78/62/112
f 78/62/112 70/17/76 124/60/110
f 28/8/67 124/60/110 70/17/76
f 70/17/76 78/62/112 6/18/77
f 124/60/110 28/8/67 125/63/113
f 125/63/113 126/64/114 124/60/110
f 32/61/111 124/60/110 126/64/114
f 126/64/114 125/63/113 39/55/105
f 92/57/107 15/59/109 79/65/115
f 79/65/115 126/64/114 92/57/107
f 39/55/105 92/57/107 126/64/114
f 126/64/114 79/65/115 32/61/111
f 93/56/106 39/55/105 125/63/113
f 125/63/113 71/7/66 93/56/106
f 13/9/68 93/56/106 71/7/66
f 71/7/66 125/63/113 28/8/67
f 127/66/116 33/67/117 80/68/118
f 80/68/118 90/58/108 127/66/116
f 38/52/102 127/66/116 90/58/108
f 90/58/108 80/68/118 15/59/109
f 127/66/116 38/52/102 128/69/119
f 128/69/119 129/70/120 127/66/116
f 33/67/117 127/66/116 129/70/120
f 129/70/120 128/69/119 30/71/121
f 81/72/21 129/70/120 74/73/19
f 30/71/121 74/73/19 129/70/120
f 129/70/120 81/72/21 33/67/117
f 75/74/122 30/71/121 128/69/119
f 128/69/119 91/51/101 75/74/122
f 14/47/98 75/74/122 91/51/101
f 91/51/101 128/69/119 38/52/102
f 130/75/24 40/76/123 94/77/22
f 131/78/27 132/79/124 130/75/24
f 40/76/123 130/75/24 132/79/124
f 132/79/124 131/78/27 26/80/125
f 67/81/126 12/82/127 95/83/128
f 95/83/128 132/79/124 67/81/126
f 26/80/125 67/81/126 132/79/124
f 132/79/124 95/83/128 40/76/123
f 66/84/29 26/80/125 131/78/27
f 133/85/129 40/76/123 95/83/128
f 95/83/128 97/86/130 133/85/129
f 41/87/131 133/85/129 97/86/130
f 97/86/130 95/83/128 12/82/127
f 133/85/129 41/87/131 134/88/132
f 134/88/132 135/89/133 133/85/129
f 40/76/123 133/85/129 135/89/133
f 135/89/133 134/88/132 42/90/134
f 94/77/22 135/89/133 98/91/31
f 42/90/134 98/91/31 135/89/133
f 135/89/133 94/77/22 40/76/123
f 99/92/135 42/90/134 134/88/132
f 134/88/132 96/93/136 99/92/135
f 15/59/109 99/92/135 96/93/136
f 96/93/136 134/88/132 41/87/131
f 136/94/33 33/67/117 81/72/21
f 137/95/35 138/96/137 136/94/33
f 33/67/117 136/94/33 138/96/137
f 138/96/137 137/95/35 42/90/134
f 99/92/135 15/59/109 80/68/118
f 80/68/118 138/96/137 99/92/135
f 42/90/134 99/92/135 138/96/137
f 138/96/137 80/68/118 33/67/117
f 98/91/31 42/90/134 137/95/35
f 139/97/138 32/61/111 79/65/115
f 79/65/115 96/93/136 139/97/138
f 41/87/131 139/97/138 96/93/136
f 96/93/136 79/65/115 15/59/109
f 139/97/138 41/87/131 140/98/139
f 140/98/139 141/99/140 139/97/138
f 32/61/111 139/97/138 141/99/140
f 141/99/140 140/98/139 27/100/141
f 68/101/142 6/18/77 78/62/112
f 78/62/112 141/99/140 68/101/142
f 27/100/141 68/101/142 141/99/140
f 141/99/140 78/62/112 32/61/111
f 69/102/143 27/100/141 140/98/139
f 140/98/139 97/86/130 69/102/143
f 12/82/127 69/102/143 97/86/130
f 97/86/130 140/98/139 41/87/131
f 142/103/39 43/104/144 100/105/37
f 143/106/42 144/107/145 142/103/39
f 43/104/144 142/103/39 144/107/145
f 144/107/145 143/106/42 30/71/121
f 75/74/122 14/47/98 101/108/146
f 101/108/146 144/107/145 75/74/122
f 30/71/121 75/74/122 144/107/145
f 144/107/145 101/108/146 43/104/144
f 74/73/19 30/71/121 143/106/42
f 145/109/147 43/104/144 101/108/146
f 101/108/146 103/110/148 145/109/147
f 44/111/149 145/109/147 103/110/148
f 103/110/148 101/108/146 14/47/98
f 145/109/147 44/111/149 146/112/150
f 146/112/150 147/113/151 145/109/147
f 43/104/144 145/109/147 147/113/151
f 147/113/151 146/112/150 45/114/152
f 100/105/37 147/113/151 104/115/44
f 45/114/152 104/115/44 147/113/151
f 147/113/151 100/105/37 43/104/144
f 105/116/46 45/114/152 146/112/150
f 146/112/150 102/117/47 105/116/46
f 102/117/47 146/112/150 44/111/149
f 149/118/54 150/119/55 148/120/48
f 150/119/55 149/118/54 45/114/152
f 45/114/152 105/116/46 150/119/55
f 104/115/44 45/114/152 149/118/54
f 44/111/149 151/121/58 102/117/47
f 151/121/58 44/111/149 152/122/153
f 152/122/153 153/123/61 151/121/58
f 153/123/61 152/122/153 31/45/96
f 31/45/96 77/49/18 153/123/61
f 76/46/97 31/45/96 152/122/153
f 152/122/153 103/110/148 76/46/97
f 14/47/98 76/46/97 103/110/148
f 103/110/148 152/122/153 44/111/149
f 154 168
f 154 162
f 155 162
f 155 166
f 156 166
f 156 163
f 157 163
f 157 169
f 158 168
f 158 164
f 159 167
f 159 164
f 160 167
f 160 165
f 161 165
f 161 170
