# Blender v2.56 (sub 0) OBJ File: 'untitled.blend'
# www.blender.org
mtllib sail.mtl
o Mesh_Plane_Plane.001
v 1.365781 1.160804 -0.019750
v 1.391254 1.123832 -0.021462
v 1.381712 1.124998 -0.021280
v 1.349382 1.123832 -0.021462
v 1.385098 1.123832 -0.021462
v 1.266217 1.939448 0.044269
v 1.250447 2.054317 0.048615
v 1.268589 1.931880 0.044053
v 1.240465 2.097966 0.051109
v 1.234111 2.166677 0.053488
v 1.289453 1.789588 0.043570
v 1.303325 1.630044 0.043570
v 1.286794 1.809015 0.043570
v 1.302315 1.676626 0.043570
v 1.357964 1.212625 0.043570
v 1.317558 1.542090 0.043570
v 1.344131 1.324716 0.043570
v 1.327625 1.457046 0.043570
v 1.381712 1.124998 0.043570
v 1.365781 1.160804 0.043570
v 1.219382 2.243778 0.056609
v 1.071132 3.236392 0.043570
v 1.097756 3.092792 0.044127
v 1.115803 2.962995 0.049434
v 1.057809 3.377087 0.043570
v 1.077567 3.241953 0.043570
v 1.096688 3.064544 0.045163
v 1.119416 2.912427 0.052720
v 1.134347 2.837846 0.056184
v 1.153139 2.711024 0.061339
v 1.172552 2.561647 0.062555
v 1.174078 2.570832 0.062183
v 1.196523 2.423212 0.059441
v 1.142966 2.744189 0.061369
v 1.197755 2.398172 0.059645
v 1.215922 2.292580 0.057406
v 1.037526 1.543298 0.043570
v 1.206849 1.724385 0.043570
v 1.222103 1.574647 0.043570
v 0.885279 1.538670 0.049034
v 0.992767 1.703219 0.056617
v 1.195103 1.893908 0.048205
v 1.227206 1.129949 0.043570
v 1.332540 1.200243 0.043570
v 1.370676 1.124458 0.043570
v 1.282367 1.416715 0.043570
v 1.160733 1.190303 0.043570
v 0.997455 1.124208 0.043570
v 0.954916 1.183369 0.043570
v 1.097074 1.396343 0.043570
v 0.913529 1.361385 0.043570
v 0.590205 1.126339 0.043570
v 0.694753 1.185213 0.043570
v 0.715014 1.125387 0.043570
v 0.818274 1.181648 0.043570
v 0.787767 1.349063 0.043570
v 0.836704 1.124585 0.043570
v -0.078331 1.627830 0.088386
v 0.038241 1.786808 0.154665
v 0.060982 1.614503 0.098906
v -0.221046 1.624178 0.068044
v -0.107448 1.794802 0.136596
v 0.010039 1.967127 0.208425
v 0.160934 1.956410 0.200856
v 0.265985 2.126323 0.227904
v 0.306788 1.937085 0.177979
v 0.121341 2.146158 0.252137
v 0.234250 2.320748 0.253374
v 0.190059 1.775111 0.147449
v 0.208094 1.594975 0.096389
v 0.335266 1.754037 0.134022
v 0.354011 1.565875 0.089167
v 0.064659 1.125200 0.043570
v 0.169028 1.200762 0.043570
v 0.196137 1.124643 0.043570
v 0.303757 1.193320 0.043570
v 0.385239 1.375392 0.049152
v 0.436348 1.185218 0.043570
v 0.242534 1.397826 0.051219
v 0.327290 1.124460 0.043570
v 0.460555 1.124979 0.043570
v 0.097676 1.425753 0.052514
v 0.037722 1.208670 0.043570
v -0.063999 1.125504 0.043570
v -0.093864 1.208628 0.043570
v -0.040039 1.450536 0.051577
v -0.181556 1.444481 0.045181
v -0.458383 1.137220 0.043570
v -0.388686 1.234628 0.043570
v -0.334356 1.132050 0.043570
v -0.232687 1.214299 0.043570
v -0.329649 1.438836 0.043570
v -0.193832 1.125205 0.043570
v 0.757833 1.527374 0.057088
v 0.658714 1.341048 0.043588
v 0.626085 1.525707 0.066378
v 0.567664 1.183316 0.043570
v 0.523225 1.348873 0.045149
v 0.490366 1.536683 0.077001
v 0.657462 2.276185 0.171793
v 0.551349 2.092039 0.175685
v 0.517893 2.288704 0.207512
v 0.794652 2.275933 0.134892
v 0.687730 2.087164 0.149488
v 0.583485 1.893919 0.132337
v 0.447685 1.913266 0.156215
v 0.470008 1.722052 0.115748
v 0.410607 2.103098 0.205393
v 0.376640 2.305375 0.230938
v 0.604838 1.696764 0.097397
v 0.716453 1.885373 0.112796
v 0.821154 2.083872 0.123105
v 0.846065 1.882039 0.095995
v 0.737453 1.692960 0.082930
v 0.861463 1.694933 0.069906
v 1.167452 2.062939 0.060173
v 1.134509 2.229049 0.069550
v 0.986323 1.882423 0.077605
v 0.970057 2.077741 0.093463
v 0.938181 2.268738 0.104037
v 0.890482 2.974003 0.090474
v 1.016561 3.063977 0.052436
v 1.043317 2.908265 0.066568
v 0.682063 3.019313 0.125892
v 0.834476 3.170966 0.060834
v 0.959243 3.256641 0.043622
v 1.111980 2.386060 0.074016
v 0.914113 2.441723 0.110710
v 1.086920 2.555776 0.080207
v 1.057563 2.738171 0.082598
v 0.896770 2.621207 0.126978
v 0.764424 2.451803 0.145725
v 0.732184 2.637279 0.173252
v 0.889996 2.804298 0.121688
v 0.704200 2.834099 0.168870
v 0.487960 2.478872 0.223467
v 0.348913 2.494487 0.251099
v 0.456558 2.665173 0.242643
v 0.593408 2.647660 0.214336
v 0.565617 2.839734 0.201381
v 0.626105 2.463242 0.187975
v 1.192437 1.131021 0.043570
v 1.349382 1.123832 0.043570
v 0.995886 1.123913 0.043570
v 0.647684 1.123832 0.043570
v 0.751364 1.123832 0.043570
v 0.540642 1.123832 0.043570
v 0.855159 1.123832 0.043570
v 0.214539 1.123832 0.043570
v 0.321727 1.123832 0.043570
v 0.105199 1.123832 0.043570
v 0.430544 1.123832 0.043570
v -0.216846 1.123869 0.043570
v -0.110501 1.123832 0.043570
v -0.332768 1.130313 0.043570
v -0.003562 1.123832 0.043570
v 1.077567 3.241953 0.043570
v 1.097756 3.092792 0.044127
v 1.115803 2.962995 0.049434
v 1.134347 2.837846 0.056184
v 1.153139 2.711024 0.061339
v 1.196523 2.423212 0.059441
v 1.174078 2.570832 0.062183
v 1.215922 2.292580 0.057406
v 1.234111 2.166677 0.053488
v 1.385098 1.123832 0.043570
v 1.365781 1.160804 0.043570
v 1.344131 1.324716 0.043570
v 1.317558 1.542090 0.043570
v 1.302315 1.676626 0.043570
v 1.286794 1.809015 0.043570
v 1.268589 1.931880 0.044053
v 1.250447 2.054317 0.048615
v 1.385098 1.123832 0.043570
vt 0.000000 0.000000
vt 1.000000 0.000000
vt 1.000000 1.000000
vt 0.200821 0.647306
vt 0.273973 0.726976
vt 0.210511 0.732981
vt 0.199740 0.583673
vt 0.267202 0.627749
vt 0.346697 0.727221
vt 0.437557 0.761314
vt 0.367754 0.771883
vt 0.302184 0.780999
vt 0.233176 0.781993
vt 0.012378 0.740836
vt 0.046381 0.787327
vt 0.010689 0.806156
vt 0.157999 0.789360
vt 0.052007 0.800920
vt 0.010893 0.811722
vt 0.141398 0.762248
vt 0.041552 0.709879
vt 0.004210 0.640179
vt 0.034441 0.620117
vt 0.136322 0.676252
vt 0.121519 0.598013
vt 0.000007 0.461623
vt 0.030702 0.507124
vt 0.000001 0.516506
vt 0.030526 0.560806
vt 0.115396 0.545012
vt 0.001179 0.569870
vt 0.230258 0.167972
vt 0.300902 0.216937
vt 0.225901 0.231802
vt 0.227260 0.101898
vt 0.304063 0.149380
vt 0.379534 0.200712
vt 0.372940 0.269071
vt 0.444348 0.314030
vt 0.362965 0.333123
vt 0.455952 0.249757
vt 0.530527 0.297958
vt 0.295600 0.285213
vt 0.218999 0.296810
vt 0.286853 0.348742
vt 0.208846 0.361337
vt 0.004252 0.230199
vt 0.038323 0.276950
vt 0.002627 0.288054
vt 0.035070 0.336281
vt 0.126360 0.374904
vt 0.031374 0.394439
vt 0.133056 0.312306
vt 0.001034 0.345791
vt 0.000000 0.404506
vt 0.143559 0.248478
vt 0.042501 0.219136
vt 0.005499 0.173554
vt 0.042877 0.160887
vt 0.153248 0.187663
vt 0.148410 0.122998
vt 0.011222 0.000000
vt 0.054218 0.030592
vt 0.009071 0.054574
vt 0.045394 0.099433
vt 0.144275 0.056129
vt 0.005950 0.116422
vt 0.195456 0.530713
vt 0.112679 0.490578
vt 0.195155 0.476124
vt 0.030177 0.451797
vt 0.116458 0.433642
vt 0.198980 0.420014
vt 0.505747 0.481635
vt 0.426250 0.435902
vt 0.512030 0.421012
vt 0.506542 0.541448
vt 0.424854 0.494864
vt 0.343933 0.451026
vt 0.351966 0.393568
vt 0.274136 0.406979
vt 0.431934 0.376218
vt 0.521173 0.359470
vt 0.264475 0.464050
vt 0.341267 0.508026
vt 0.424605 0.553473
vt 0.340684 0.564485
vt 0.263320 0.519834
vt 0.264280 0.572285
vt 0.501666 0.750797
vt 0.420315 0.718053
vt 0.492895 0.704206
vt 0.341185 0.626149
vt 0.423555 0.620348
vt 0.505438 0.606504
vt 0.821662 0.596809
vt 0.863054 0.653320
vt 0.793896 0.665682
vt 0.841417 0.504694
vt 0.911182 0.572943
vt 0.948111 0.624340
vt 1.000000 0.666002
vt 0.937571 0.668489
vt 0.863416 0.688833
vt 0.796269 0.699642
vt 0.561663 0.694058
vt 0.580738 0.596948
vt 0.636600 0.683756
vt 0.722079 0.711885
vt 0.641765 0.727735
vt 0.569774 0.740782
vt 0.717855 0.671920
vt 0.660022 0.593246
vt 0.583412 0.530286
vt 0.665770 0.521274
vt 0.743757 0.594876
vt 0.756080 0.513423
vt 0.596835 0.409921
vt 0.606488 0.348801
vt 0.681859 0.400514
vt 0.671472 0.461365
vt 0.760222 0.452660
vt 0.588649 0.470432
vn -0.823695 -0.566698 -0.017335
vn -0.014649 0.144292 -0.989410
vn -0.007324 0.095370 -0.995392
vn 0.000000 0.154210 -0.988006
vn 0.000000 -0.046236 0.998901
vn -0.075411 0.015473 -0.997009
vn -0.106326 0.024384 -0.994018
vn -0.143468 -0.006226 -0.989624
vn -0.130222 0.025391 -0.991150
vn -0.139897 0.016755 -0.990020
vn -0.121311 -0.014954 -0.992492
vn 0.000000 0.000000 -1.000000
vn -0.328349 -0.044923 -0.943480
vn 0.000000 0.000000 1.000000
vn -0.955138 -0.296091 0.000000
vn -0.123692 0.014313 -0.992187
vn -0.007324 -0.017579 -0.999817
vn -0.314158 -0.056185 -0.947691
vn -0.105930 -0.049226 -0.993133
vn -0.095523 -0.014679 -0.995300
vn -0.324809 -0.047487 -0.944578
vn -0.011292 -0.046999 -0.998810
vn -0.140049 -0.073641 -0.987396
vn -0.079623 -0.059572 -0.995025
vn -0.078280 -0.043031 -0.995972
vn -0.182012 -0.015473 -0.983154
vn -0.110050 -0.015107 -0.993805
vn -0.218268 -0.016175 -0.975738
vn -0.187262 -0.045747 -0.981231
vn -0.167089 -0.005188 -0.985900
vn -0.159551 -0.001434 -0.987182
vn -0.023560 0.026368 -0.999359
vn -0.033815 0.018677 -0.999237
vn -0.054476 0.071169 -0.995972
vn -0.087863 0.082339 -0.992706
vn -0.106571 0.046571 -0.993194
vn -0.006592 0.009186 -0.999908
vn 0.000000 0.000031 -1.000000
vn -0.012757 0.028199 -0.999512
vn 0.104862 0.250099 -0.962493
vn 0.049257 0.297983 -0.953276
vn 0.043550 0.268624 -0.962249
vn 0.090030 0.193335 -0.976959
vn 0.131504 0.298044 -0.945433
vn 0.025117 0.280435 -0.959532
vn -0.074831 0.257179 -0.963439
vn -0.132817 0.167638 -0.976836
vn -0.105258 0.232002 -0.966979
vn -0.103763 0.198218 -0.974639
vn -0.146764 0.097781 -0.984313
vn -0.041475 0.269417 -0.962127
vn 0.002503 0.244667 -0.969573
vn -0.064577 0.226814 -0.971770
vn -0.025880 0.214240 -0.976409
vn 0.000519 0.019623 -0.999786
vn -0.000824 0.017060 -0.999847
vn -0.009095 0.110691 -0.993805
vn -0.003754 0.010346 -0.999939
vn 0.007019 0.129246 -0.991577
vn 0.019532 0.139988 -0.989929
vn 0.002655 0.018494 -0.999817
vn 0.007385 0.010529 -0.999908
vn 0.039949 0.129643 -0.990722
vn 0.038789 0.088198 -0.995331
vn 0.001801 0.001923 -0.999969
vn 0.005524 0.044099 -0.998993
vn -0.065889 0.109317 -0.991791
vn -0.015320 0.052248 -0.998505
vn -0.062868 0.144780 -0.987457
vn -0.001831 0.002686 -0.999969
vn -0.016846 0.080905 -0.996551
vn -0.051698 0.181036 -0.982086
vn -0.245857 0.061037 -0.967376
vn -0.187902 0.151830 -0.970367
vn -0.204993 0.080538 -0.975433
vn -0.226173 0.030244 -0.973601
vn -0.190039 0.114017 -0.975127
vn -0.139531 0.173528 -0.974883
vn -0.130650 0.205298 -0.969909
vn -0.092135 0.194281 -0.976592
vn -0.149327 0.166387 -0.974670
vn -0.153539 0.087436 -0.984252
vn -0.100345 0.165410 -0.981079
vn -0.134587 0.144200 -0.980346
vn -0.183416 0.076937 -0.980010
vn -0.133915 0.114780 -0.984313
vn -0.102023 0.143406 -0.984375
vn -0.104678 0.124058 -0.986724
vn -0.149876 0.037660 -0.987976
vn -0.162633 0.013398 -0.986572
vn -0.135655 0.088565 -0.986755
vn -0.168004 0.052553 -0.984375
vn -0.188604 0.017426 -0.981872
vn -0.212928 -0.185339 -0.959319
vn -0.106693 -0.093905 -0.989837
vn -0.189398 -0.116611 -0.974944
vn -0.217231 -0.231330 -0.948302
vn -0.150853 -0.155400 -0.976257
vn -0.032563 -0.040071 -0.998657
vn -0.177190 0.004669 -0.984130
vn -0.205786 0.031007 -0.978088
vn -0.214301 -0.001495 -0.976745
vn -0.234046 -0.065371 -0.970000
vn -0.244148 0.021577 -0.969481
vn -0.257363 0.054415 -0.964751
vn -0.273568 0.019959 -0.961608
vn -0.255593 -0.099216 -0.961669
vn -0.248573 -0.147679 -0.957274
vn -0.200934 0.068636 -0.977172
vn -0.173101 0.076724 -0.981903
vn -0.198645 0.013703 -0.979949
vn -0.241035 -0.000885 -0.970489
vn -0.225684 -0.147435 -0.962951
vn -0.262734 0.066042 -0.962584
vn 0.768151 0.639760 0.024781
usemtl pins
s 1
f 1/1/1 2/2/2 3/3/3
f 4/1/4 3/2/3 2/3/2
f 1/2/1 5/3/5 2/1/2
f 6/1/6 7/2/7 8/3/8
f 7/1/7 6/2/6 9/3/9
f 9/1/9 10/2/10 7/3/7
f 8/1/8 11/2/11 6/3/6
f 12/1/12 13/2/13 14/3/12
f 13/1/13 12/2/12 11/3/11
f 11/1/11 8/2/8 13/3/13
f 15/1/12 16/2/14 17/3/14
f 16/1/14 15/2/12 18/3/12
f 18/1/12 14/2/12 16/3/14
f 17/1/14 19/2/15 15/3/12
f 19/1/15 17/2/14 20/3/14
f 14/1/12 18/2/12 12/3/12
f 10/1/10 9/2/9 21/3/16
f 22/1/17 23/2/18 24/3/19
f 23/1/18 22/2/17 25/3/20
f 25/1/20 26/2/21 23/3/18
f 24/1/19 27/2/22 22/3/17
f 28/1/23 29/2/24 30/3/25
f 29/1/24 28/2/23 27/3/22
f 27/1/22 24/2/19 29/3/24
f 31/1/26 32/2/27 33/3/28
f 32/1/27 31/2/26 34/3/29
f 34/1/29 30/2/25 32/3/27
f 33/1/28 35/2/30 31/3/26
f 21/1/16 36/2/31 10/3/10
f 36/1/31 21/2/16 35/3/30
f 35/1/30 33/2/28 36/3/31
f 30/1/25 34/2/29 28/3/23
usemtl fabric_fabric
f 37/4/32 38/5/33 39/6/12
f 40/7/34 41/8/35 37/4/32
f 38/5/33 37/4/32 41/8/35
f 41/8/35 42/9/36 38/5/33
f 42/9/36 9/10/9 6/11/6
f 6/11/6 38/5/33 42/9/36
f 38/5/33 6/11/6 11/12/11
f 11/12/11 39/6/12 38/5/33
f 39/6/12 11/12/11 12/13/12
f 43/14/12 44/15/12 45/16/12
f 44/15/12 18/17/12 15/18/12
f 15/18/12 45/16/12 44/15/12
f 45/16/12 15/18/12 19/19/15
f 12/13/12 46/20/12 39/6/12
f 46/20/12 12/13/12 18/17/12
f 18/17/12 44/15/12 46/20/12
f 47/21/12 48/22/12 49/23/12
f 44/15/12 43/14/12 47/21/12
f 48/22/12 47/21/12 43/14/12
f 47/21/12 46/20/12 44/15/12
f 49/23/12 50/24/12 47/21/12
f 46/20/12 47/21/12 50/24/12
f 50/24/12 39/6/12 46/20/12
f 37/4/32 51/25/37 40/7/34
f 39/6/12 50/24/12 37/4/32
f 51/25/37 37/4/32 50/24/12
f 50/24/12 49/23/12 51/25/37
f 52/26/12 53/27/38 54/28/12
f 55/29/12 51/25/37 49/23/12
f 53/27/38 56/30/39 55/29/12
f 51/25/37 55/29/12 56/30/39
f 56/30/39 40/7/34 51/25/37
f 55/29/12 54/28/12 53/27/38
f 49/23/12 57/31/12 55/29/12
f 54/28/12 55/29/12 57/31/12
f 57/31/12 49/23/12 48/22/12
f 58/32/40 59/33/41 60/34/42
f 61/35/43 62/36/44 58/32/40
f 59/33/41 58/32/40 62/36/44
f 62/36/44 63/37/45 59/33/41
f 64/38/46 65/39/47 66/40/48
f 63/37/45 67/41/49 64/38/46
f 65/39/47 64/38/46 67/41/49
f 67/41/49 68/42/50 65/39/47
f 64/38/46 59/33/41 63/37/45
f 66/40/48 69/43/51 64/38/46
f 59/33/41 64/38/46 69/43/51
f 69/43/51 60/34/42 59/33/41
f 70/44/52 71/45/53 72/46/54
f 60/34/42 69/43/51 70/44/52
f 71/45/53 70/44/52 69/43/51
f 69/43/51 66/40/48 71/45/53
f 73/47/12 74/48/55 75/49/12
f 76/50/56 77/51/57 78/52/58
f 74/48/55 79/53/59 76/50/56
f 77/51/57 76/50/56 79/53/59
f 79/53/59 72/46/54 77/51/57
f 76/50/56 75/49/12 74/48/55
f 78/52/58 80/54/12 76/50/56
f 75/49/12 76/50/56 80/54/12
f 80/54/12 78/52/58 81/55/12
f 70/44/52 82/56/60 60/34/42
f 72/46/54 79/53/59 70/44/52
f 82/56/60 70/44/52 79/53/59
f 79/53/59 74/48/55 82/56/60
f 83/57/61 84/58/12 85/59/62
f 74/48/55 73/47/12 83/57/61
f 84/58/12 83/57/61 73/47/12
f 83/57/61 82/56/60 74/48/55
f 85/59/62 86/60/63 83/57/61
f 82/56/60 83/57/61 86/60/63
f 86/60/63 60/34/42 82/56/60
f 58/32/40 87/61/64 61/35/43
f 60/34/42 86/60/63 58/32/40
f 87/61/64 58/32/40 86/60/63
f 86/60/63 85/59/62 87/61/64
f 88/62/12 89/63/12 90/64/12
f 91/65/65 87/61/64 85/59/62
f 89/63/12 92/66/66 91/65/65
f 87/61/64 91/65/65 92/66/66
f 92/66/66 61/35/43 87/61/64
f 91/65/65 90/64/12 89/63/12
f 85/59/62 93/67/12 91/65/65
f 90/64/12 91/65/65 93/67/12
f 93/67/12 85/59/62 84/58/12
f 94/68/67 95/69/68 96/70/69
f 40/7/34 56/30/39 94/68/67
f 95/69/68 94/68/67 56/30/39
f 56/30/39 53/27/38 95/69/68
f 97/71/70 81/55/12 78/52/58
f 53/27/38 52/26/12 97/71/70
f 81/55/12 97/71/70 52/26/12
f 97/71/70 95/69/68 53/27/38
f 78/52/58 98/72/71 97/71/70
f 95/69/68 97/71/70 98/72/71
f 98/72/71 96/70/69 95/69/68
f 99/73/72 77/51/57 72/46/54
f 96/70/69 98/72/71 99/73/72
f 77/51/57 99/73/72 98/72/71
f 98/72/71 78/52/58 77/51/57
f 100/74/73 101/75/74 102/76/75
f 103/77/76 104/78/77 100/74/73
f 101/75/74 100/74/73 104/78/77
f 104/78/77 105/79/78 101/75/74
f 106/80/79 71/45/53 66/40/48
f 105/79/78 107/81/80 106/80/79
f 71/45/53 106/80/79 107/81/80
f 107/81/80 72/46/54 71/45/53
f 106/80/79 101/75/74 105/79/78
f 66/40/48 108/82/81 106/80/79
f 101/75/74 106/80/79 108/82/81
f 108/82/81 102/76/75 101/75/74
f 109/83/82 65/39/47 68/42/50
f 102/76/75 108/82/81 109/83/82
f 65/39/47 109/83/82 108/82/81
f 108/82/81 66/40/48 65/39/47
f 99/73/72 110/84/83 96/70/69
f 72/46/54 107/81/80 99/73/72
f 110/84/83 99/73/72 107/81/80
f 107/81/80 105/79/78 110/84/83
f 111/85/84 112/86/85 113/87/86
f 105/79/78 104/78/77 111/85/84
f 112/86/85 111/85/84 104/78/77
f 104/78/77 103/77/76 112/86/85
f 111/85/84 110/84/83 105/79/78
f 113/87/86 114/88/87 111/85/84
f 110/84/83 111/85/84 114/88/87
f 114/88/87 96/70/69 110/84/83
f 94/68/67 115/89/88 40/7/34
f 96/70/69 114/88/87 94/68/67
f 115/89/88 94/68/67 114/88/87
f 114/88/87 113/87/86 115/89/88
f 21/90/16 116/91/89 117/92/90
f 116/91/89 21/90/16 9/10/9
f 9/10/9 42/9/36 116/91/89
f 118/93/91 115/89/88 113/87/86
f 42/9/36 41/8/35 118/93/91
f 115/89/88 118/93/91 41/8/35
f 41/8/35 40/7/34 115/89/88
f 118/93/91 116/91/89 42/9/36
f 113/87/86 119/94/92 118/93/91
f 116/91/89 118/93/91 119/94/92
f 119/94/92 117/92/90 116/91/89
f 120/95/93 112/86/85 103/77/76
f 117/92/90 119/94/92 120/95/93
f 112/86/85 120/95/93 119/94/92
f 119/94/92 113/87/86 112/86/85
f 121/96/94 122/97/95 123/98/96
f 124/99/97 125/100/98 121/96/94
f 122/97/95 121/96/94 125/100/98
f 125/100/98 126/101/99 122/97/95
f 126/101/99 25/102/20 22/103/17
f 22/103/17 122/97/95 126/101/99
f 122/97/95 22/103/17 27/104/22
f 27/104/22 123/98/96 122/97/95
f 123/98/96 27/104/22 28/105/23
f 120/95/93 127/106/100 117/92/90
f 103/77/76 128/107/101 120/95/93
f 127/106/100 120/95/93 128/107/101
f 128/107/101 129/108/102 127/106/100
f 129/108/102 34/109/29 31/110/26
f 31/110/26 127/106/100 129/108/102
f 127/106/100 31/110/26 35/111/30
f 35/111/30 117/92/90 127/106/100
f 117/92/90 35/111/30 21/90/16
f 28/105/23 130/112/103 123/98/96
f 130/112/103 28/105/23 34/109/29
f 34/109/29 129/108/102 130/112/103
f 131/113/104 132/114/105 133/115/106
f 129/108/102 128/107/101 131/113/104
f 132/114/105 131/113/104 128/107/101
f 128/107/101 103/77/76 132/114/105
f 131/113/104 130/112/103 129/108/102
f 133/115/106 134/116/107 131/113/104
f 130/112/103 131/113/104 134/116/107
f 134/116/107 123/98/96 130/112/103
f 121/96/94 135/117/108 124/99/97
f 123/98/96 134/116/107 121/96/94
f 135/117/108 121/96/94 134/116/107
f 134/116/107 133/115/106 135/117/108
f 109/83/82 136/118/109 102/76/75
f 68/42/50 137/119/110 109/83/82
f 136/118/109 109/83/82 137/119/110
f 137/119/110 138/120/111 136/118/109
f 139/121/112 135/117/108 133/115/106
f 138/120/111 140/122/113 139/121/112
f 135/117/108 139/121/112 140/122/113
f 140/122/113 124/99/97 135/117/108
f 139/121/112 136/118/109 138/120/111
f 133/115/106 141/123/114 139/121/112
f 136/118/109 139/121/112 141/123/114
f 141/123/114 102/76/75 136/118/109
f 100/74/73 132/114/105 103/77/76
f 102/76/75 141/123/114 100/74/73
f 132/114/105 100/74/73 141/123/114
f 141/123/114 133/115/106 132/114/105
usemtl bompins
f 142/1/12 45/2/12 143/3/115
f 144/1/12 43/2/12 142/3/12
f 45/1/12 142/2/12 43/3/12
f 19/1/15 143/2/115 45/3/12
f 43/1/12 144/2/12 48/3/12
f 145/1/12 54/2/12 146/3/12
f 147/1/12 52/2/12 145/3/12
f 54/1/12 145/2/12 52/3/12
f 57/1/12 146/2/12 54/3/12
f 148/1/12 48/2/12 144/3/12
f 146/1/12 57/2/12 148/3/12
f 48/1/12 148/2/12 57/3/12
f 149/1/12 75/2/12 150/3/12
f 151/1/12 73/2/12 149/3/12
f 75/1/12 149/2/12 73/3/12
f 80/1/12 150/2/12 75/3/12
f 152/1/12 81/2/12 147/3/12
f 150/1/12 80/2/12 152/3/12
f 81/1/12 152/2/12 80/3/12
f 73/1/12 151/2/12 84/3/12
f 153/1/12 90/2/12 154/3/12
f 155/1/14 88/2/12 153/3/12
f 90/1/12 153/2/12 88/3/12
f 93/1/12 154/2/12 90/3/12
f 156/1/12 84/2/12 151/3/12
f 154/1/12 93/2/12 156/3/12
f 84/1/12 156/2/12 93/3/12
f 52/1/12 147/2/12 81/3/12
f 20 174
f 162 163
f 165 173
f 170 171
f 168 169
f 166 167
f 162 164
f 171 172
f 159 160
f 160 161
f 167 168
f 157 158
f 158 159
f 172 173
f 169 170
f 161 163
f 164 165
