# Blender v2.56 (sub 0) OBJ File: 'boat.blend'
# www.blender.org
mtllib sail.mtl
o Plane_Plane.001
v 1.104888 3.237532 -0.020161
v 1.433551 1.123832 -0.021462
v -0.284314 1.130313 -0.019040
v 0.589095 1.123832 -0.021462
v 1.282265 2.166580 -0.014416
v 0.273058 2.309242 0.074167
v 1.044339 1.123913 -0.021433
v 0.153652 1.123832 -0.021462
v 1.201592 2.711024 -0.014416
v 1.350769 1.676626 -0.011902
v 0.730933 3.018964 0.025360
v -0.172592 1.624178 0.004976
v 0.824957 2.264129 0.156092
v 0.933733 1.538670 0.187150
v 0.400571 1.565259 0.168640
v 1.397835 1.123832 -0.021462
v 0.799818 1.123832 -0.021462
v -0.062048 1.123832 -0.021462
v 0.370181 1.123832 -0.021462
v 1.164257 2.962995 -0.014416
v 1.244273 2.422983 -0.014416
v 1.392584 1.324716 -0.015445
v 1.317042 1.931880 -0.014416
v 0.999141 3.254839 -0.033316
v 0.500983 2.656197 0.074167
v -0.340232 1.234628 -0.013592
v 0.056828 1.964934 0.042564
v 0.548113 2.273293 0.138389
v 1.179676 2.227822 0.053300
v 0.743207 1.185213 0.017179
v 1.243556 1.893908 0.068565
v 0.342118 1.928820 0.150579
v 0.484801 1.185218 0.018019
v 0.774665 2.629649 0.120559
v 1.091770 2.908265 -0.002621
v 1.133473 2.554921 0.038439
v 0.885260 1.877803 0.198228
v 0.673351 1.525321 0.205035
v 0.614378 1.884765 0.207599
v -0.045411 1.208628 -0.006204
v 0.109435 1.614503 0.097215
v 0.217481 1.200762 0.005799
v 1.003369 1.183369 0.019791
v 1.270556 1.574647 0.078327
v 1.380993 1.200243 -0.004544
v 1.439708 1.123832 -0.021462
v 1.240891 1.131021 -0.018931
v 0.903612 1.123832 -0.021462
v 0.696137 1.123832 -0.021462
v -0.168393 1.123869 -0.021448
v 0.044891 1.123832 -0.021462
v 0.262992 1.123832 -0.021462
v 0.478998 1.123832 -0.021462
v 1.144513 3.092444 -0.014234
v 1.182801 2.837846 -0.014416
v 1.222373 2.570781 -0.014416
v 1.263631 2.292338 -0.014416
v 1.414234 1.160804 -0.019750
v 1.366011 1.542090 -0.009465
v 1.335247 1.809015 -0.014416
v 1.298900 2.054317 -0.014416
v 1.090912 3.373350 -0.016666
v 0.882929 3.170966 -0.026455
v 0.387021 2.482719 0.074167
v 0.615784 2.836218 0.060923
v -0.409930 1.137220 -0.019859
v -0.281195 1.438836 -0.008647
v 0.165071 2.139076 0.065934
v -0.058995 1.794802 0.016810
v 0.409741 2.290902 0.107507
v 0.686746 2.261557 0.158850
v 0.974065 2.261731 0.139572
v 1.267156 2.243556 -0.007524
v 0.638659 1.126339 -0.019478
v 0.836220 1.349063 0.123991
v 1.040789 1.703078 0.191161
v 1.288836 2.097939 -0.008462
v 0.303993 2.115589 0.115452
v 0.374643 1.750261 0.167881
v 0.433693 1.375392 0.126247
v 0.509009 1.124979 -0.019619
v 0.753702 2.831357 0.073796
v 0.797827 2.441049 0.143581
v 0.938971 2.973973 0.017308
v 1.167869 2.912427 -0.013121
v 0.951474 2.435281 0.131789
v 1.191419 2.744189 -0.010270
v 0.906923 1.693959 0.208622
v 0.855593 2.075214 0.179064
v 0.537063 1.536111 0.198779
v 0.805870 1.527239 0.197076
v 0.508431 1.718136 0.201820
v 0.718173 2.075056 0.184825
v -0.015545 1.125504 -0.020302
v -0.133103 1.444481 0.024934
v 0.255637 1.594679 0.128955
v -0.029878 1.627830 0.053678
v 0.113112 1.125200 -0.020176
v 0.290988 1.397826 0.101893
v 1.045908 1.124208 -0.020292
v 0.961982 1.361385 0.122699
v 1.351778 1.630044 -0.001448
v 1.085979 1.543298 0.164137
v 1.275659 1.129949 -0.017706
v 1.376078 1.457046 -0.007824
v 0.660414 2.450236 0.129588
v 0.523331 2.465138 0.105573
v 0.637277 2.638650 0.105486
v 0.938753 2.803171 0.061549
v 1.106024 2.738074 0.020107
v 0.940503 2.616984 0.108006
v 1.245393 2.397907 -0.011279
v 1.156839 2.384623 0.048566
v 1.220783 2.561575 -0.010602
v 1.145078 3.064531 -0.014570
v 1.064908 3.063955 -0.013317
v 1.098716 3.232042 -0.021209
v 1.010032 2.073425 0.154130
v 1.214846 2.062595 0.059046
v 1.031354 1.881132 0.177705
v 0.779763 1.690863 0.214421
v 0.644661 1.693609 0.219492
v 0.750422 1.878207 0.205262
v 0.441930 2.090104 0.159161
v 0.579866 2.078053 0.181098
v 0.478839 1.903778 0.190181
v 0.571678 1.348873 0.133576
v 0.707168 1.341048 0.129802
v 0.616117 1.183316 0.019208
v -0.145379 1.125205 -0.021001
v -0.285903 1.132050 -0.018829
v -0.184234 1.214299 -0.014295
v 0.008414 1.450536 0.066362
v 0.146130 1.425753 0.083646
v 0.086176 1.208670 0.001603
v 0.375743 1.124460 -0.020309
v 0.244591 1.124643 -0.020459
v 0.352210 1.193320 0.013732
v 0.233208 1.772668 0.123641
v 0.085383 1.786190 0.070466
v 0.202378 1.950828 0.099823
v 0.885157 1.124585 -0.020550
v 0.763467 1.125387 -0.020382
v 0.866727 1.181648 0.016288
v 1.145527 1.396343 0.105994
v 1.330821 1.416715 0.034175
v 1.209187 1.190303 0.017921
v 1.430166 1.124998 -0.021280
v 1.419129 1.124458 -0.021065
v 1.406417 1.212625 -0.016319
v 1.337906 1.789588 -0.010247
v 1.255302 1.724385 0.086029
v 1.314670 1.939448 -0.007528
v 1.298900 2.054317 -0.014416
v 1.335247 1.809015 -0.014416
v 1.366011 1.542090 -0.009465
v 1.414234 1.160804 -0.019750
v 1.263631 2.292338 -0.014416
v 1.222373 2.570781 -0.014416
v 1.182801 2.837846 -0.014416
v 1.144513 3.092444 -0.014234
v 1.317042 1.931880 -0.014416
v 1.392584 1.324716 -0.015445
v 1.244273 2.422983 -0.014416
v 1.164257 2.962995 -0.014416
v 1.350769 1.676626 -0.011902
v 1.201592 2.711024 -0.014416
v 1.282265 2.166580 -0.014416
v 1.433551 1.123832 -0.021462
v 1.104888 3.237532 -0.020161
vn -0.533830 -0.081637 -0.841609
vn -0.539964 -0.101810 -0.835475
vn -0.344310 -0.078646 -0.935514
vn -0.684805 -0.108707 -0.720542
vn -0.773370 -0.114261 -0.623524
vn -0.834223 -0.125645 -0.536882
vn -0.740684 -0.123264 -0.660421
vn -0.861599 -0.126804 -0.491470
vn -0.651448 -0.106082 -0.751213
vn -0.729942 -0.111057 -0.674398
vn -0.243477 -0.071322 -0.967254
vn -0.075442 -0.022828 -0.996887
vn -0.255745 -0.041017 -0.965850
vn 0.097659 -0.013794 -0.995117
vn 0.052644 0.023835 -0.998321
vn -0.363567 -0.061312 0.929533
vn 0.203345 0.029237 -0.978668
vn -0.773400 -0.128147 -0.620808
vn -0.006043 0.596179 -0.802789
vn -0.002197 0.729698 -0.683737
vn 0.000946 0.684378 -0.729087
vn 0.011994 0.436598 -0.899564
vn 0.000885 0.513627 -0.857997
vn 0.014985 0.257851 -0.966033
vn 0.000397 0.328837 -0.944365
vn 0.000793 0.661000 -0.750359
vn 0.009980 0.245277 -0.969390
vn -0.011628 0.027833 -0.999542
vn -0.004791 -0.122318 -0.992462
vn -0.055025 -0.998230 0.021699
vn 0.009033 0.527848 -0.849269
vn -0.000183 0.860530 -0.509354
vn 0.010712 0.700339 -0.713706
vn 0.000580 0.846370 -0.532548
vn 0.013764 0.621448 -0.783288
vn 0.000671 0.754753 -0.655995
vn -0.008087 0.770928 -0.636860
vn 0.000763 0.862575 -0.505905
vn 0.004273 0.646229 -0.763085
vn 0.000977 0.657216 -0.753685
vn -0.019868 0.978393 0.205756
vn 0.001892 0.566973 -0.823725
vn -0.000366 0.598498 -0.801111
vn -0.042360 0.842433 -0.537095
vn -0.991028 -0.113865 0.069674
vn -0.888791 -0.079379 -0.451338
vn -0.860469 -0.092166 -0.501053
vn -0.121982 0.396039 -0.910062
vn -0.986938 -0.136631 0.085269
vn 0.038026 -0.029328 0.998840
vn -0.014588 0.143986 -0.989441
vn -0.014618 0.712607 -0.701376
vn 0.000000 -0.046236 0.998901
vn -0.103610 0.588946 -0.801477
vn -0.634999 -0.051088 -0.770806
vn -0.916959 -0.103824 0.385174
vn 0.009217 0.998718 -0.049715
vn -0.922483 -0.109775 -0.370006
vn -0.980071 -0.146397 -0.134098
vn -0.991638 -0.113895 -0.060427
vn -0.855220 -0.134617 -0.500412
vn -0.915830 -0.140996 -0.375927
vn 0.122501 -0.125065 -0.984527
vn 0.001801 -0.175481 -0.984466
vn -0.013184 -0.112094 -0.993591
vn 0.056825 -0.136021 -0.989044
vn 0.156621 -0.170141 -0.972869
vn -0.063143 -0.103519 -0.992615
vn 0.188360 -0.134648 -0.972808
vn 0.140019 -0.163182 -0.976592
vn 0.202338 -0.155400 -0.966887
vn 0.120518 -0.215644 -0.968993
vn -0.033723 -0.247322 -0.968322
vn -0.006165 -0.235939 -0.971740
vn 0.208960 -0.140507 -0.967772
vn 0.213416 -0.169347 -0.962157
vn 0.246071 -0.154942 -0.956755
vn -0.189581 -0.226600 -0.955351
vn -0.125340 -0.221412 -0.967071
vn -0.162297 -0.123051 -0.979034
vn -0.296152 -0.146825 -0.943754
vn -0.223884 -0.173559 -0.959014
vn -0.406842 -0.122745 -0.905209
vn -0.242439 -0.104434 -0.964507
vn -0.480575 -0.117374 -0.869045
vn -0.461867 -0.098239 -0.881466
vn -0.265419 -0.105686 -0.958312
vn -0.025056 -0.102847 -0.994354
vn 0.082827 -0.042909 -0.995636
vn -0.048189 -0.192145 -0.980163
vn -0.286691 -0.132176 -0.948851
vn -0.096774 -0.091647 -0.991058
vn -0.094394 -0.117588 -0.988556
vn -0.522324 -0.132511 -0.842372
vn -0.290139 -0.111850 -0.950407
vn -0.560656 -0.122349 -0.818934
vn -0.293771 -0.005432 -0.955840
vn -0.113071 0.230140 -0.966552
vn -0.096469 0.019593 -0.995117
vn -0.046663 0.016633 -0.998749
vn -0.071718 0.237861 -0.968627
vn -0.006531 0.228217 -0.973571
vn 0.035951 0.008209 -0.999298
vn -0.037812 -0.083010 -0.995819
vn 0.055879 -0.084323 -0.994842
vn -0.012421 -0.125095 -0.992035
vn 0.183294 0.002197 -0.983032
vn 0.145024 0.189337 -0.971129
vn 0.251869 0.133854 -0.958434
vn 0.211829 -0.162603 -0.963652
vn 0.292825 -0.082247 -0.952605
vn 0.284341 -0.143895 -0.947844
vn 0.094790 -0.149937 -0.984130
vn 0.191534 -0.078249 -0.978332
vn 0.271340 -0.005158 -0.962462
vn 0.059145 0.457442 -0.887234
vn 0.048952 0.520646 -0.852351
vn 0.167760 0.388653 -0.905942
vn -0.035859 0.476760 -0.878262
vn -0.001160 0.562487 -0.826777
vn -0.016449 0.553453 -0.832698
vn -0.056215 0.455428 -0.888485
vn 0.085543 0.185858 -0.978820
vn 0.055239 0.086947 -0.994659
vn 0.003876 0.044465 -0.998993
vn 0.146825 0.027833 -0.988739
vn 0.290445 -0.081210 -0.953429
vn 0.230720 0.066042 -0.970763
vn 0.204962 0.150182 -0.967162
vn 0.308908 -0.075228 -0.948088
vn 0.250160 -0.000488 -0.968200
vn 0.156285 0.234169 -0.959532
vn 0.064547 0.272134 -0.960082
vn 0.072481 0.345836 -0.935484
vn 0.189856 0.305734 -0.932981
vn 0.243538 0.083254 -0.966308
vn 0.081179 0.436628 -0.895932
vn 0.299875 -0.044984 -0.952910
vn 0.330851 -0.100467 -0.938292
vn 0.336467 -0.089816 -0.937376
vn 0.351878 -0.092044 -0.931486
vn 0.327891 -0.118076 -0.937284
vn 0.334025 -0.129368 -0.933622
vn -0.030457 0.503861 -0.863216
vn -0.001495 0.533616 -0.845698
vn -0.092532 0.413617 -0.905728
vn -0.257637 0.291482 -0.921201
vn -0.297372 0.161840 -0.940916
vn -0.564501 0.016297 -0.825251
vn -0.495987 0.066195 -0.865780
vn -0.119236 0.379162 -0.917600
vn -0.310739 0.117924 -0.943144
vn -0.584552 -0.060060 -0.809107
usemtl pins
s 1
f 9//1 87//2 85//3
f 112//4 21//5 57//6
f 57//6 73//7 112//4
f 73//7 57//6 5//8
f 21//5 112//4 114//9
f 87//2 9//1 56//10
f 56//10 114//9 87//2
f 114//9 56//10 21//5
f 115//11 20//12 55//13
f 55//13 85//3 115//11
f 85//3 55//13 9//1
f 20//12 115//11 117//14
f 62//15 1//16 54//17
f 54//17 117//14 62//15
f 117//14 54//17 20//12
f 5//8 77//18 73//7
f 74//19 4//20 81//21
f 94//22 51//23 130//24
f 18//25 130//24 51//23
f 51//23 94//22 8//26
f 130//24 18//25 131//27
f 131//27 50//28 66//29
f 3//30 66//29 50//28
f 50//28 131//27 18//25
f 98//31 8//26 94//22
f 81//21 53//32 136//33
f 19//34 136//33 53//32
f 53//32 81//21 4//20
f 136//33 19//34 137//35
f 137//35 52//36 98//31
f 8//26 98//31 52//36
f 52//36 137//35 19//34
f 100//37 48//38 142//39
f 17//40 142//39 48//38
f 48//38 100//37 7//41
f 142//39 17//40 143//42
f 143//42 49//43 74//19
f 4//20 74//19 49//43
f 49//43 143//42 17//40
f 104//44 7//41 100//37
f 10//45 105//46 102//47
f 148//48 22//49 58//50
f 58//50 46//51 148//48
f 16//52 148//48 46//51
f 46//51 58//50 2//53
f 148//48 16//52 149//54
f 22//49 148//48 150//55
f 105//46 10//45 59//56
f 59//56 150//55 105//46
f 150//55 59//56 22//49
f 149//54 47//57 104//44
f 7//41 104//44 47//57
f 47//57 149//54 16//52
f 151//58 23//59 60//60
f 60//60 102//47 151//58
f 102//47 60//60 10//45
f 23//59 151//58 153//61
f 77//18 5//8 61//62
f 61//62 153//61 77//18
f 153//61 61//62 23//59
usemtl Material.001
f 106//63 34//64 83//65
f 83//65 71//66 106//63
f 28//67 106//63 71//66
f 71//66 83//65 13//68
f 106//63 28//67 107//69
f 107//69 108//70 106//63
f 34//64 106//63 108//70
f 108//70 107//69 25//71
f 65//72 11//73 82//74
f 82//74 108//70 65//72
f 25//71 65//72 108//70
f 108//70 82//74 34//64
f 64//75 25//71 107//69
f 107//69 70//76 64//75
f 6//77 64//75 70//76
f 70//76 107//69 28//67
f 109//78 34//64 82//74
f 82//74 84//79 109//78
f 35//80 109//78 84//79
f 84//79 82//74 11//73
f 109//78 35//80 110//81
f 110//81 111//82 109//78
f 34//64 109//78 111//82
f 111//82 110//81 36//83
f 86//84 13//68 83//65
f 83//65 111//82 86//84
f 36//83 86//84 111//82
f 111//82 83//65 34//64
f 87//2 36//83 110//81
f 110//81 85//3 87//2
f 85//3 110//81 35//80
f 29//85 112//4 73//7
f 112//4 29//85 113//86
f 113//86 114//9 112//4
f 114//9 113//86 36//83
f 36//83 87//2 114//9
f 86//84 36//83 113//86
f 113//86 72//87 86//84
f 13//68 86//84 72//87
f 72//87 113//86 29//85
f 35//80 115//11 85//3
f 115//11 35//80 116//88
f 116//88 117//14 115//11
f 117//14 116//88 24//89
f 24//89 62//15 117//14
f 63//90 24//89 116//88
f 116//88 84//79 63//90
f 11//73 63//90 84//79
f 84//79 116//88 35//80
f 118//91 37//92 89//93
f 89//93 72//87 118//91
f 29//85 118//91 72//87
f 72//87 89//93 13//68
f 118//91 29//85 119//94
f 119//94 120//95 118//91
f 37//92 118//91 120//95
f 120//95 119//94 31//96
f 76//97 14//98 88//99
f 88//99 120//95 76//97
f 31//96 76//97 120//95
f 120//95 88//99 37//92
f 77//18 31//96 119//94
f 119//94 73//7 77//18
f 73//7 119//94 29//85
f 121//100 37//92 88//99
f 88//99 91//101 121//100
f 38//102 121//100 91//101
f 91//101 88//99 14//98
f 121//100 38//102 122//103
f 122//103 123//104 121//100
f 37//92 121//100 123//104
f 123//104 122//103 39//105
f 93//106 13//68 89//93
f 89//93 123//104 93//106
f 39//105 93//106 123//104
f 123//104 89//93 37//92
f 92//107 39//105 122//103
f 122//103 90//108 92//107
f 15//109 92//107 90//108
f 90//108 122//103 38//102
f 124//110 32//111 78//112
f 78//112 70//76 124//110
f 28//67 124//110 70//76
f 70//76 78//112 6//77
f 124//110 28//67 125//113
f 125//113 126//114 124//110
f 32//111 124//110 126//114
f 126//114 125//113 39//105
f 92//107 15//109 79//115
f 79//115 126//114 92//107
f 39//105 92//107 126//114
f 126//114 79//115 32//111
f 93//106 39//105 125//113
f 125//113 71//66 93//106
f 13//68 93//106 71//66
f 71//66 125//113 28//67
f 127//116 33//117 80//118
f 80//118 90//108 127//116
f 38//102 127//116 90//108
f 90//108 80//118 15//109
f 127//116 38//102 128//119
f 128//119 129//120 127//116
f 33//117 127//116 129//120
f 129//120 128//119 30//121
f 81//21 129//120 74//19
f 30//121 74//19 129//120
f 129//120 81//21 33//117
f 75//122 30//121 128//119
f 128//119 91//101 75//122
f 14//98 75//122 91//101
f 91//101 128//119 38//102
f 130//24 40//123 94//22
f 131//27 132//124 130//24
f 40//123 130//24 132//124
f 132//124 131//27 26//125
f 67//126 12//127 95//128
f 95//128 132//124 67//126
f 26//125 67//126 132//124
f 132//124 95//128 40//123
f 66//29 26//125 131//27
f 133//129 40//123 95//128
f 95//128 97//130 133//129
f 41//131 133//129 97//130
f 97//130 95//128 12//127
f 133//129 41//131 134//132
f 134//132 135//133 133//129
f 40//123 133//129 135//133
f 135//133 134//132 42//134
f 94//22 135//133 98//31
f 42//134 98//31 135//133
f 135//133 94//22 40//123
f 99//135 42//134 134//132
f 134//132 96//136 99//135
f 15//109 99//135 96//136
f 96//136 134//132 41//131
f 136//33 33//117 81//21
f 137//35 138//137 136//33
f 33//117 136//33 138//137
f 138//137 137//35 42//134
f 99//135 15//109 80//118
f 80//118 138//137 99//135
f 42//134 99//135 138//137
f 138//137 80//118 33//117
f 98//31 42//134 137//35
f 139//138 32//111 79//115
f 79//115 96//136 139//138
f 41//131 139//138 96//136
f 96//136 79//115 15//109
f 139//138 41//131 140//139
f 140//139 141//140 139//138
f 32//111 139//138 141//140
f 141//140 140//139 27//141
f 68//142 6//77 78//112
f 78//112 141//140 68//142
f 27//141 68//142 141//140
f 141//140 78//112 32//111
f 69//143 27//141 140//139
f 140//139 97//130 69//143
f 12//127 69//143 97//130
f 97//130 140//139 41//131
f 142//39 43//144 100//37
f 143//42 144//145 142//39
f 43//144 142//39 144//145
f 144//145 143//42 30//121
f 75//122 14//98 101//146
f 101//146 144//145 75//122
f 30//121 75//122 144//145
f 144//145 101//146 43//144
f 74//19 30//121 143//42
f 145//147 43//144 101//146
f 101//146 103//148 145//147
f 44//149 145//147 103//148
f 103//148 101//146 14//98
f 145//147 44//149 146//150
f 146//150 147//151 145//147
f 43//144 145//147 147//151
f 147//151 146//150 45//152
f 100//37 147//151 104//44
f 45//152 104//44 147//151
f 147//151 100//37 43//144
f 105//46 45//152 146//150
f 146//150 102//47 105//46
f 102//47 146//150 44//149
f 149//54 150//55 148//48
f 150//55 149//54 45//152
f 45//152 105//46 150//55
f 104//44 45//152 149//54
f 44//149 151//58 102//47
f 151//58 44//149 152//153
f 152//153 153//61 151//58
f 153//61 152//153 31//96
f 31//96 77//18 153//61
f 76//97 31//96 152//153
f 152//153 103//148 76//97
f 14//98 76//97 103//148
f 103//148 152//153 44//149
f 154 168
f 154 162
f 155 162
f 155 166
f 156 166
f 156 163
f 157 163
f 157 169
f 158 168
f 158 164
f 159 167
f 159 164
f 160 167
f 160 165
f 161 165
f 161 170
