# Blender v2.56 (sub 0) OBJ File: 'boat.blend'
# www.blender.org
mtllib sail.mtl
o Plane_Plane.001
v 1.444439 3.149555 -0.028662
v 1.427152 1.009308 -0.021153
v -0.269402 1.277375 0.000389
v 0.592517 1.137405 -0.011814
v 1.435847 2.062957 -0.018441
v 0.424173 2.370399 0.202099
v 1.042481 1.068436 -0.016819
v 0.162114 1.203372 -0.007012
v 1.438646 2.613376 -0.020646
v 1.429279 1.568296 -0.013862
v 1.007777 3.003773 0.048245
v -0.100609 1.774013 0.064018
v 0.986536 2.260019 0.204807
v 0.998525 1.496006 0.190582
v 0.462969 1.616886 0.213024
v 1.391851 1.014726 -0.020758
v 0.800793 1.105452 -0.014143
v -0.050757 1.237162 -0.004466
v 0.375932 1.169888 -0.009502
v 1.439811 2.868271 -0.021511
v 1.437182 2.322155 -0.019498
v 1.417197 1.214104 -0.015841
v 1.434626 1.825699 -0.017474
v 1.329564 3.181971 -0.040547
v 0.705177 2.694288 0.180413
v -0.308870 1.390751 0.006749
v 0.178361 2.067761 0.104395
v 0.695869 2.314060 0.263596
v 1.344449 2.139435 0.050154
v 0.754605 1.174866 0.024768
v 1.357217 1.799649 0.066533
v 0.457090 1.994437 0.217367
v 0.498960 1.213219 0.028337
v 0.981390 2.630930 0.176373
v 1.357301 2.828258 -0.003935
v 1.346074 2.472115 0.037510
v 1.002114 1.850081 0.214316
v 0.738061 1.527093 0.217462
v 0.724776 1.925446 0.267302
v -0.021449 1.320040 0.010876
v 0.180408 1.717392 0.156154
v 0.236352 1.270131 0.019961
v 1.011492 1.133584 0.024512
v 1.335600 1.480030 0.077834
v 1.386993 1.092876 -0.004095
v 1.433236 1.008374 -0.021221
v 1.237853 1.045652 -0.016532
v 0.903379 1.089706 -0.015291
v 0.698319 1.121182 -0.012996
v -0.155729 1.253767 -0.003210
v 0.054788 1.220441 -0.005723
v 0.269963 1.186056 -0.008331
v 0.483602 1.153777 -0.010646
v 1.441841 2.999083 -0.022113
v 1.439132 2.741792 -0.020971
v 1.437951 2.471563 -0.020107
v 1.436502 2.190086 -0.018959
v 1.413687 1.048789 -0.019440
v 1.423970 1.433016 -0.010819
v 1.433986 1.701496 -0.016967
v 1.435263 1.949470 -0.017978
v 1.445466 3.286142 -0.024043
v 1.191379 3.118365 -0.027995
v 0.560793 2.531336 0.210900
v 0.856004 2.856333 0.112906
v -0.392759 1.302453 0.000798
v -0.229260 1.599044 0.031241
v 0.302354 2.215803 0.161046
v 0.040708 1.922198 0.082991
v 0.556750 2.342669 0.242267
v 0.839491 2.284951 0.250292
v 1.139599 2.219426 0.160970
v 1.432670 2.141362 -0.011825
v 0.641913 1.132388 -0.010391
v 0.872646 1.323136 0.129599
v 1.129316 1.642286 0.192464
v 1.432002 1.994138 -0.012165
v 0.438204 2.179532 0.214318
v 0.464204 1.813482 0.230189
v 0.471033 1.415073 0.148103
v 0.513491 1.150471 -0.009126
v 0.992468 2.829914 0.121275
v 0.978179 2.438092 0.195610
v 1.209725 2.923771 0.030671
v 1.435583 2.817918 -0.019776
v 1.135969 2.397321 0.160690
v 1.433645 2.647747 -0.016551
v 0.996612 1.657051 0.215515
v 0.997493 2.065135 0.217126
v 0.599479 1.563639 0.224198
v 0.870764 1.505149 0.203185
v 0.594985 1.765738 0.257603
v 0.854587 2.097071 0.249536
v -0.004603 1.231515 -0.003868
v -0.083019 1.584917 0.067255
v 0.320812 1.671280 0.185861
v 0.044704 1.755247 0.116590
v 0.122334 1.211100 -0.005253
v 0.328924 1.465576 0.136794
v 1.044091 1.068494 -0.015698
v 0.998798 1.316230 0.126844
v 1.423336 1.522143 -0.003152
v 1.149430 1.477391 0.165860
v 1.272069 1.039323 -0.015685
v 1.421042 1.347436 -0.008799
v 0.837034 2.468504 0.215389
v 0.695775 2.500633 0.230537
v 0.841762 2.660068 0.187951
v 1.179987 2.760983 0.085305
v 1.346205 2.657567 0.018981
v 1.152213 2.579764 0.137586
v 1.434523 2.297212 -0.016229
v 1.343753 2.299995 0.047626
v 1.435029 2.462720 -0.016222
v 1.436496 2.971324 -0.022250
v 1.356070 2.984234 -0.018144
v 1.437222 3.145031 -0.029658
v 1.154286 2.021751 0.164519
v 1.354310 1.970701 0.056361
v 1.147399 1.822112 0.181021
v 0.869806 1.681577 0.232981
v 0.732209 1.714908 0.255224
v 0.865054 1.885403 0.243604
v 0.571770 2.146320 0.262002
v 0.709416 2.122621 0.272539
v 0.588912 1.962241 0.259597
v 0.609844 1.363244 0.143440
v 0.743934 1.334766 0.136875
v 0.628701 1.192179 0.028199
v -0.132771 1.251609 -0.003024
v -0.270701 1.279352 0.000611
v -0.157816 1.348371 0.005028
v 0.058558 1.567510 0.108807
v 0.190654 1.519087 0.122306
v 0.108294 1.299406 0.017298
v 0.381541 1.169675 -0.008414
v 0.251929 1.189714 -0.007120
v 0.368484 1.240973 0.025778
v 0.327680 1.850206 0.180615
v 0.183965 1.888636 0.130150
v 0.321677 2.029436 0.162885
v 0.885264 1.093253 -0.014179
v 0.765114 1.112508 -0.012670
v 0.876138 1.152600 0.022531
v 1.185312 1.322871 0.107909
v 1.370691 1.314607 0.033929
v 1.215944 1.109205 0.020326
v 1.423984 1.010975 -0.020940
v 1.412997 1.012116 -0.020600
v 1.413860 1.101209 -0.016222
v 1.433717 1.681907 -0.012716
v 1.343323 1.630378 0.084842
v 1.433511 1.833568 -0.010604
v 1.435263 1.949470 -0.017978
v 1.433986 1.701496 -0.016967
v 1.423970 1.433016 -0.010819
v 1.413687 1.048789 -0.019440
v 1.436502 2.190086 -0.018959
v 1.437951 2.471563 -0.020107
v 1.439132 2.741792 -0.020971
v 1.441841 2.999083 -0.022113
v 1.434626 1.825699 -0.017474
v 1.417197 1.214104 -0.015841
v 1.437182 2.322155 -0.019498
v 1.439811 2.868271 -0.021511
v 1.429279 1.568296 -0.013862
v 1.438646 2.613376 -0.020646
v 1.435847 2.062957 -0.018441
v 1.427152 1.009308 -0.021153
v 1.444439 3.149555 -0.028662
vt 0.000000 0.000000
vt 1.000000 0.000000
vt 1.000000 1.000000
vt 0.588649 0.470432
vt 0.665770 0.521274
vt 0.583412 0.530286
vt 0.505747 0.481635
vt 0.512030 0.421012
vt 0.506542 0.541448
vt 0.596835 0.409921
vt 0.671472 0.461365
vt 0.681859 0.400514
vt 0.760222 0.452660
vt 0.841417 0.504694
vt 0.756080 0.513423
vt 0.606488 0.348801
vt 0.521173 0.359470
vt 0.530527 0.297958
vt 0.743757 0.594876
vt 0.821662 0.596809
vt 0.793896 0.665682
vt 0.717855 0.671920
vt 0.660022 0.593246
vt 0.636600 0.683756
vt 0.580738 0.596948
vt 0.722079 0.711885
vt 0.796269 0.699642
vt 0.492895 0.704206
vt 0.569774 0.740782
vt 0.501666 0.750797
vt 0.561663 0.694058
vt 0.641765 0.727735
vt 0.505438 0.606504
vt 0.863416 0.688833
vt 0.863054 0.653320
vt 0.937571 0.668489
vt 0.948111 0.624340
vt 1.000000 0.666002
vt 0.911182 0.572943
vt 0.423555 0.620348
vt 0.340684 0.564485
vt 0.424605 0.553473
vt 0.420315 0.718053
vt 0.341185 0.626149
vt 0.346697 0.727221
vt 0.267202 0.627749
vt 0.199740 0.583673
vt 0.264280 0.572285
vt 0.437557 0.761314
vt 0.263320 0.519834
vt 0.195456 0.530713
vt 0.195155 0.476124
vt 0.264475 0.464050
vt 0.341267 0.508026
vt 0.343933 0.451026
vt 0.424854 0.494864
vt 0.274136 0.406979
vt 0.198980 0.420014
vt 0.208846 0.361337
vt 0.431934 0.376218
vt 0.362965 0.333123
vt 0.444348 0.314030
vt 0.426250 0.435902
vt 0.351966 0.393568
vt 0.286853 0.348742
vt 0.116458 0.433642
vt 0.031374 0.394439
vt 0.126360 0.374904
vt 0.112679 0.490578
vt 0.030177 0.451797
vt 0.030702 0.507124
vt 0.000000 0.404506
vt 0.000007 0.461623
vt 0.115396 0.545012
vt 0.005950 0.116422
vt 0.042877 0.160887
vt 0.005499 0.173554
vt 0.009071 0.054574
vt 0.045394 0.099433
vt 0.054218 0.030592
vt 0.144275 0.056129
vt 0.227260 0.101898
vt 0.148410 0.122998
vt 0.011222 0.000000
vt 0.153248 0.187663
vt 0.230258 0.167972
vt 0.225901 0.231802
vt 0.143559 0.248478
vt 0.042501 0.219136
vt 0.038323 0.276950
vt 0.004252 0.230199
vt 0.133056 0.312306
vt 0.218999 0.296810
vt 0.001034 0.345791
vt 0.002627 0.288054
vt 0.035070 0.336281
vt 0.295600 0.285213
vt 0.300902 0.216937
vt 0.372940 0.269071
vt 0.379534 0.200712
vt 0.455952 0.249757
vt 0.304063 0.149380
vt 0.001179 0.569870
vt 0.034441 0.620117
vt 0.004210 0.640179
vt 0.000001 0.516506
vt 0.030526 0.560806
vt 0.121519 0.598013
vt 0.136322 0.676252
vt 0.200821 0.647306
vt 0.210511 0.732981
vt 0.141398 0.762248
vt 0.041552 0.709879
vt 0.046381 0.787327
vt 0.012378 0.740836
vt 0.157999 0.789360
vt 0.233176 0.781993
vt 0.010689 0.806156
vt 0.052007 0.800920
vt 0.010893 0.811722
vt 0.302184 0.780999
vt 0.273973 0.726976
vt 0.367754 0.771883
vn -0.552416 -0.002564 -0.833552
vn -0.570849 -0.020966 -0.820765
vn -0.391522 -0.027619 -0.919736
vn -0.704764 -0.004975 -0.709403
vn -0.789087 0.001831 -0.614246
vn -0.849910 0.000183 -0.526872
vn -0.758629 -0.012085 -0.651387
vn -0.876583 0.003388 -0.481185
vn -0.675344 -0.008393 -0.737419
vn -0.746361 -0.001709 -0.665517
vn -0.255104 -0.033296 -0.966338
vn 0.035218 -0.019166 -0.999176
vn -0.269234 -0.005676 -0.963042
vn 0.162114 -0.032533 -0.986206
vn -0.091769 0.016938 -0.995605
vn -0.992065 0.011658 -0.124973
vn 0.268105 -0.010193 -0.963317
vn -0.791162 -0.011841 -0.611469
vn -0.995941 0.038057 0.081271
vn -0.895810 0.054537 -0.441023
vn -0.870357 0.037416 -0.490982
vn -0.071230 0.406293 -0.910947
vn -0.995148 0.015015 0.096988
vn 0.044923 -0.030732 0.998505
vn -0.004273 0.140568 -0.990051
vn 0.085299 0.703787 -0.705252
vn 0.004761 -0.041688 0.999115
vn -0.644459 0.042695 -0.763421
vn -0.917478 0.037996 0.395917
vn -0.932768 0.029939 -0.359172
vn -0.992462 0.003418 -0.122410
vn -0.998077 0.037599 -0.048830
vn -0.871609 -0.005310 -0.490158
vn -0.930998 -0.001923 -0.364940
vn -0.142186 -0.152867 -0.977935
vn -0.200354 -0.176336 -0.963713
vn -0.226386 -0.100040 -0.968871
vn -0.195776 -0.087008 -0.976745
vn -0.009796 -0.120609 -0.992645
vn -0.273659 -0.050508 -0.960479
vn 0.002075 -0.193335 -0.981109
vn -0.073428 -0.250435 -0.965331
vn 0.012024 -0.286782 -0.957915
vn -0.022340 -0.365642 -0.930479
vn -0.147374 -0.350658 -0.924802
vn -0.155583 -0.313211 -0.936827
vn 0.147923 -0.194952 -0.969573
vn 0.202490 -0.117710 -0.972167
vn 0.298654 -0.079562 -0.951018
vn -0.345531 -0.207739 -0.915098
vn -0.256294 -0.259194 -0.931181
vn -0.259438 -0.107913 -0.959685
vn -0.393262 -0.097537 -0.914212
vn -0.371136 -0.126621 -0.919889
vn -0.483413 -0.056337 -0.873562
vn -0.371563 -0.049013 -0.927091
vn -0.530992 -0.037324 -0.846522
vn -0.521775 -0.021393 -0.852779
vn -0.394116 -0.034242 -0.918393
vn -0.094974 -0.125126 -0.987579
vn 0.046968 -0.062929 -0.996887
vn -0.142430 -0.240669 -0.960082
vn -0.393139 -0.046205 -0.918302
vn -0.219947 -0.002258 -0.975494
vn -0.267006 -0.027039 -0.963286
vn -0.559526 -0.048708 -0.827357
vn -0.351146 -0.040376 -0.935423
vn -0.585559 -0.036195 -0.809809
vn -0.312784 0.045381 -0.948729
vn -0.094241 0.248451 -0.964019
vn -0.147130 0.070162 -0.986602
vn -0.129551 0.102939 -0.986206
vn -0.064821 0.271065 -0.960356
vn -0.021668 0.285928 -0.957976
vn -0.060183 0.119022 -0.991058
vn -0.180578 0.031739 -0.983032
vn -0.056673 0.031159 -0.997894
vn -0.204688 -0.008820 -0.978759
vn 0.116611 0.083346 -0.989654
vn 0.092593 0.265969 -0.959502
vn 0.208258 0.197668 -0.957884
vn 0.211127 -0.020142 -0.977233
vn 0.335002 -0.017701 -0.942045
vn 0.341990 -0.012116 -0.939604
vn -0.033662 -0.006317 -0.999390
vn 0.171392 0.011048 -0.985137
vn 0.269784 0.005432 -0.962889
vn 0.089938 0.466903 -0.879696
vn 0.108737 0.516892 -0.849086
vn 0.170171 0.418104 -0.892300
vn 0.020936 0.479843 -0.877071
vn 0.072237 0.554888 -0.828761
vn 0.057680 0.546312 -0.835566
vn 0.094577 0.676107 -0.730674
vn 0.074862 0.589190 -0.804468
vn 0.002106 0.456252 -0.889828
vn 0.041993 0.247047 -0.968078
vn 0.109134 0.214057 -0.970672
vn 0.070223 0.431989 -0.899106
vn 0.033723 0.225837 -0.973571
vn 0.069857 0.124638 -0.989715
vn 0.011109 0.074770 -0.997131
vn 0.171453 0.096225 -0.980468
vn 0.300058 -0.053163 -0.952422
vn 0.254006 0.125340 -0.959044
vn -0.036988 -0.143040 -0.989013
vn 0.230598 0.210639 -0.949950
vn 0.292764 -0.063204 -0.954070
vn 0.242836 0.012543 -0.969970
vn 0.200171 0.291635 -0.935331
vn 0.103336 0.296884 -0.949278
vn 0.122806 0.365337 -0.922697
vn 0.083316 0.525559 -0.846644
vn 0.212073 0.353069 -0.911222
vn 0.245613 0.109317 -0.963164
vn 0.106876 0.690970 -0.714927
vn 0.099826 0.611347 -0.784997
vn 0.131504 0.445570 -0.885495
vn 0.302469 -0.074099 -0.950255
vn 0.289895 -0.136479 -0.947264
vn 0.358470 -0.033876 -0.932920
vn 0.339335 -0.073550 -0.937773
vn 0.371349 0.008881 -0.928434
vn 0.288522 -0.164006 -0.943297
vn 0.093234 0.635029 -0.766808
vn 0.036103 0.499191 -0.865719
vn 0.101352 0.760674 -0.641133
vn 0.078127 0.556780 -0.826960
vn 0.069430 0.524247 -0.848689
vn -0.039430 0.419233 -0.907010
vn -0.221320 0.323496 -0.919950
vn -0.280496 0.201331 -0.938475
vn -0.565203 0.098422 -0.819025
vn -0.490402 0.137181 -0.860622
vn -0.071169 0.389172 -0.918393
vn -0.300363 0.159917 -0.940306
vn 0.079531 0.836940 -0.541429
vn -0.022553 0.594653 -0.803644
vn -0.596423 0.026063 -0.802210
vn 0.099521 0.721274 -0.685446
vn 0.071932 0.511399 -0.856319
vn 0.033448 0.287179 -0.957274
vn 0.096103 0.654866 -0.749596
vn -0.019654 0.019013 -0.999603
vn -0.196478 -0.968993 0.149754
vn 0.121677 0.849971 -0.512528
vn 0.120365 0.828669 -0.546617
vn 0.110813 0.746147 -0.656453
vn 0.125614 0.850429 -0.510819
vn 0.091739 0.646413 -0.757408
vn 0.131138 0.970885 0.200323
vn 0.080813 0.588000 -0.804773
vn 0.159978 0.985534 -0.055574
usemtl pins
s 1
f 9/1/1 87/2/2 85/3/3
f 112/1/4 21/2/5 57/3/6
f 57/1/6 73/2/7 112/3/4
f 73/1/7 57/2/6 5/3/8
f 21/1/5 112/2/4 114/3/9
f 87/1/2 9/2/1 56/3/10
f 56/1/10 114/2/9 87/3/2
f 114/1/9 56/2/10 21/3/5
f 115/1/11 20/2/12 55/3/13
f 55/1/13 85/2/3 115/3/11
f 85/1/3 55/2/13 9/3/1
f 20/1/12 115/2/11 117/3/14
f 62/1/15 1/2/16 54/3/17
f 54/1/17 117/2/14 62/3/15
f 117/1/14 54/2/17 20/3/12
f 5/1/8 77/2/18 73/3/7
f 10/1/19 105/2/20 102/3/21
f 148/1/22 22/2/23 58/3/24
f 58/1/24 46/2/25 148/3/22
f 16/1/26 148/2/22 46/3/25
f 46/1/25 58/2/24 2/3/27
f 22/1/23 148/2/22 150/3/28
f 105/1/20 10/2/19 59/3/29
f 59/1/29 150/2/28 105/3/20
f 150/1/28 59/2/29 22/3/23
f 151/1/30 23/2/31 60/3/32
f 60/1/32 102/2/21 151/3/30
f 102/1/21 60/2/32 10/3/19
f 23/1/31 151/2/30 153/3/33
f 77/1/18 5/2/8 61/3/34
f 61/1/34 153/2/33 77/3/18
f 153/1/33 61/2/34 23/3/31
usemtl Material.001_wood.png.001
f 106/4/35 34/5/36 83/6/37
f 83/6/37 71/7/38 106/4/35
f 28/8/39 106/4/35 71/7/38
f 71/7/38 83/6/37 13/9/40
f 106/4/35 28/8/39 107/10/41
f 107/10/41 108/11/42 106/4/35
f 34/5/36 106/4/35 108/11/42
f 108/11/42 107/10/41 25/12/43
f 65/13/44 11/14/45 82/15/46
f 82/15/46 108/11/42 65/13/44
f 25/12/43 65/13/44 108/11/42
f 108/11/42 82/15/46 34/5/36
f 64/16/47 25/12/43 107/10/41
f 107/10/41 70/17/48 64/16/47
f 6/18/49 64/16/47 70/17/48
f 70/17/48 107/10/41 28/8/39
f 109/19/50 34/5/36 82/15/46
f 82/15/46 84/20/51 109/19/50
f 35/21/52 109/19/50 84/20/51
f 84/20/51 82/15/46 11/14/45
f 109/19/50 35/21/52 110/22/53
f 110/22/53 111/23/54 109/19/50
f 34/5/36 109/19/50 111/23/54
f 111/23/54 110/22/53 36/24/55
f 86/25/56 13/9/40 83/6/37
f 83/6/37 111/23/54 86/25/56
f 36/24/55 86/25/56 111/23/54
f 111/23/54 83/6/37 34/5/36
f 87/26/2 36/24/55 110/22/53
f 110/22/53 85/27/3 87/26/2
f 85/27/3 110/22/53 35/21/52
f 29/28/57 112/29/4 73/30/7
f 112/29/4 29/28/57 113/31/58
f 113/31/58 114/32/9 112/29/4
f 114/32/9 113/31/58 36/24/55
f 36/24/55 87/26/2 114/32/9
f 86/25/56 36/24/55 113/31/58
f 113/31/58 72/33/59 86/25/56
f 13/9/40 86/25/56 72/33/59
f 72/33/59 113/31/58 29/28/57
f 35/21/52 115/34/11 85/27/3
f 115/34/11 35/21/52 116/35/60
f 116/35/60 117/36/14 115/34/11
f 117/36/14 116/35/60 24/37/61
f 24/37/61 62/38/15 117/36/14
f 63/39/62 24/37/61 116/35/60
f 116/35/60 84/20/51 63/39/62
f 11/14/45 63/39/62 84/20/51
f 84/20/51 116/35/60 35/21/52
f 118/40/63 37/41/64 89/42/65
f 89/42/65 72/33/59 118/40/63
f 29/28/57 118/40/63 72/33/59
f 72/33/59 89/42/65 13/9/40
f 118/40/63 29/28/57 119/43/66
f 119/43/66 120/44/67 118/40/63
f 37/41/64 118/40/63 120/44/67
f 120/44/67 119/43/66 31/45/68
f 76/46/69 14/47/70 88/48/71
f 88/48/71 120/44/67 76/46/69
f 31/45/68 76/46/69 120/44/67
f 120/44/67 88/48/71 37/41/64
f 77/49/18 31/45/68 119/43/66
f 119/43/66 73/30/7 77/49/18
f 73/30/7 119/43/66 29/28/57
f 121/50/72 37/41/64 88/48/71
f 88/48/71 91/51/73 121/50/72
f 38/52/74 121/50/72 91/51/73
f 91/51/73 88/48/71 14/47/70
f 121/50/72 38/52/74 122/53/75
f 122/53/75 123/54/76 121/50/72
f 37/41/64 121/50/72 123/54/76
f 123/54/76 122/53/75 39/55/77
f 93/56/78 13/9/40 89/42/65
f 89/42/65 123/54/76 93/56/78
f 39/55/77 93/56/78 123/54/76
f 123/54/76 89/42/65 37/41/64
f 92/57/79 39/55/77 122/53/75
f 122/53/75 90/58/80 92/57/79
f 15/59/81 92/57/79 90/58/80
f 90/58/80 122/53/75 38/52/74
f 124/60/82 32/61/83 78/62/84
f 78/62/84 70/17/48 124/60/82
f 28/8/39 124/60/82 70/17/48
f 70/17/48 78/62/84 6/18/49
f 124/60/82 28/8/39 125/63/85
f 125/63/85 126/64/86 124/60/82
f 32/61/83 124/60/82 126/64/86
f 126/64/86 125/63/85 39/55/77
f 92/57/79 15/59/81 79/65/87
f 79/65/87 126/64/86 92/57/79
f 39/55/77 92/57/79 126/64/86
f 126/64/86 79/65/87 32/61/83
f 93/56/78 39/55/77 125/63/85
f 125/63/85 71/7/38 93/56/78
f 13/9/40 93/56/78 71/7/38
f 71/7/38 125/63/85 28/8/39
f 127/66/88 33/67/89 80/68/90
f 80/68/90 90/58/80 127/66/88
f 38/52/74 127/66/88 90/58/80
f 90/58/80 80/68/90 15/59/81
f 127/66/88 38/52/74 128/69/91
f 128/69/91 129/70/92 127/66/88
f 33/67/89 127/66/88 129/70/92
f 129/70/92 128/69/91 30/71/93
f 81/72/94 129/70/92 74/73/95
f 30/71/93 74/73/95 129/70/92
f 129/70/92 81/72/94 33/67/89
f 75/74/96 30/71/93 128/69/91
f 128/69/91 91/51/73 75/74/96
f 14/47/70 75/74/96 91/51/73
f 91/51/73 128/69/91 38/52/74
f 130/75/97 40/76/98 94/77/99
f 131/78/100 132/79/101 130/75/97
f 40/76/98 130/75/97 132/79/101
f 132/79/101 131/78/100 26/80/102
f 67/81/103 12/82/104 95/83/105
f 95/83/105 132/79/101 67/81/103
f 26/80/102 67/81/103 132/79/101
f 132/79/101 95/83/105 40/76/98
f 66/84/106 26/80/102 131/78/100
f 133/85/107 40/76/98 95/83/105
f 95/83/105 97/86/108 133/85/107
f 41/87/109 133/85/107 97/86/108
f 97/86/108 95/83/105 12/82/104
f 133/85/107 41/87/109 134/88/110
f 134/88/110 135/89/111 133/85/107
f 40/76/98 133/85/107 135/89/111
f 135/89/111 134/88/110 42/90/112
f 94/77/99 135/89/111 98/91/113
f 42/90/112 98/91/113 135/89/111
f 135/89/111 94/77/99 40/76/98
f 99/92/114 42/90/112 134/88/110
f 134/88/110 96/93/115 99/92/114
f 15/59/81 99/92/114 96/93/115
f 96/93/115 134/88/110 41/87/109
f 136/94/116 33/67/89 81/72/94
f 137/95/117 138/96/118 136/94/116
f 33/67/89 136/94/116 138/96/118
f 138/96/118 137/95/117 42/90/112
f 99/92/114 15/59/81 80/68/90
f 80/68/90 138/96/118 99/92/114
f 42/90/112 99/92/114 138/96/118
f 138/96/118 80/68/90 33/67/89
f 98/91/113 42/90/112 137/95/117
f 139/97/119 32/61/83 79/65/87
f 79/65/87 96/93/115 139/97/119
f 41/87/109 139/97/119 96/93/115
f 96/93/115 79/65/87 15/59/81
f 139/97/119 41/87/109 140/98/120
f 140/98/120 141/99/121 139/97/119
f 32/61/83 139/97/119 141/99/121
f 141/99/121 140/98/120 27/100/122
f 68/101/123 6/18/49 78/62/84
f 78/62/84 141/99/121 68/101/123
f 27/100/122 68/101/123 141/99/121
f 141/99/121 78/62/84 32/61/83
f 69/102/124 27/100/122 140/98/120
f 140/98/120 97/86/108 69/102/124
f 12/82/104 69/102/124 97/86/108
f 97/86/108 140/98/120 41/87/109
f 142/103/125 43/104/126 100/105/127
f 143/106/128 144/107/129 142/103/125
f 43/104/126 142/103/125 144/107/129
f 144/107/129 143/106/128 30/71/93
f 75/74/96 14/47/70 101/108/130
f 101/108/130 144/107/129 75/74/96
f 30/71/93 75/74/96 144/107/129
f 144/107/129 101/108/130 43/104/126
f 74/73/95 30/71/93 143/106/128
f 145/109/131 43/104/126 101/108/130
f 101/108/130 103/110/132 145/109/131
f 44/111/133 145/109/131 103/110/132
f 103/110/132 101/108/130 14/47/70
f 145/109/131 44/111/133 146/112/134
f 146/112/134 147/113/135 145/109/131
f 43/104/126 145/109/131 147/113/135
f 147/113/135 146/112/134 45/114/136
f 100/105/127 147/113/135 104/115/137
f 45/114/136 104/115/137 147/113/135
f 147/113/135 100/105/127 43/104/126
f 105/116/20 45/114/136 146/112/134
f 146/112/134 102/117/21 105/116/20
f 102/117/21 146/112/134 44/111/133
f 149/118/138 150/119/28 148/120/22
f 150/119/28 149/118/138 45/114/136
f 45/114/136 105/116/20 150/119/28
f 104/115/137 45/114/136 149/118/138
f 44/111/133 151/121/30 102/117/21
f 151/121/30 44/111/133 152/122/139
f 152/122/139 153/123/33 151/121/30
f 153/123/33 152/122/139 31/45/68
f 31/45/68 77/49/18 153/123/33
f 76/46/69 31/45/68 152/122/139
f 152/122/139 103/110/132 76/46/69
f 14/47/70 76/46/69 103/110/132
f 103/110/132 152/122/139 44/111/133
usemtl bompins
f 74/1/95 4/2/140 81/3/94
f 94/1/99 51/2/141 130/3/97
f 18/1/142 130/2/97 51/3/141
f 51/1/141 94/2/99 8/3/143
f 130/1/97 18/2/142 131/3/100
f 131/1/100 50/2/144 66/3/106
f 3/1/145 66/2/106 50/3/144
f 50/1/144 131/2/100 18/3/142
f 98/1/113 8/2/143 94/3/99
f 81/1/94 53/2/146 136/3/116
f 19/1/147 136/2/116 53/3/146
f 53/1/146 81/2/94 4/3/140
f 136/1/116 19/2/147 137/3/117
f 137/1/117 52/2/148 98/3/113
f 8/1/143 98/2/113 52/3/148
f 52/1/148 137/2/117 19/3/147
f 100/1/127 48/2/149 142/3/125
f 17/1/150 142/2/125 48/3/149
f 48/1/149 100/2/127 7/3/151
f 142/1/125 17/2/150 143/3/128
f 143/1/128 49/2/152 74/3/95
f 4/1/140 74/2/95 49/3/152
f 49/1/152 143/2/128 17/3/150
f 104/1/137 7/2/151 100/3/127
f 148/1/22 16/2/26 149/3/138
f 149/1/138 47/2/153 104/3/137
f 7/1/151 104/2/137 47/3/153
f 47/1/153 149/2/138 16/3/26
