# Blender v2.56 (sub 0) OBJ File: 'boat.blend'
# www.blender.org
mtllib sail.mtl
o Plane_Plane.001
v 1.077567 3.241953 -0.020172
v 1.385098 1.123832 -0.021462
v -0.332768 1.130313 -0.019040
v 0.540642 1.123832 -0.021462
v 1.233812 2.166580 -0.014416
v 0.224605 2.309242 0.074167
v 0.995886 1.123913 -0.021433
v 0.105199 1.123832 -0.021462
v 1.153139 2.711024 -0.014416
v 1.302315 1.676626 -0.011902
v 0.682480 3.018964 0.025360
v -0.221046 1.624178 0.004976
v 0.776503 2.264129 0.156092
v 0.885279 1.538670 0.187150
v 0.352118 1.565259 0.168640
v 1.349382 1.123832 -0.021462
v 0.751364 1.123832 -0.021462
v -0.110501 1.123832 -0.021462
v 0.321727 1.123832 -0.021462
v 1.115803 2.962995 -0.014416
v 1.195819 2.422983 -0.014416
v 1.344131 1.324716 -0.015445
v 1.268589 1.931880 -0.014416
v 0.959243 3.256641 -0.033282
v 0.452530 2.656197 0.074167
v -0.388686 1.234628 -0.013592
v 0.008375 1.964934 0.042564
v 0.499660 2.273293 0.138389
v 1.131222 2.227822 0.053300
v 0.694753 1.185213 0.017179
v 1.195103 1.893908 0.068565
v 0.293665 1.928820 0.150579
v 0.436348 1.185218 0.018019
v 0.726211 2.629649 0.120559
v 1.043317 2.908265 -0.002621
v 1.085019 2.554921 0.038439
v 0.836807 1.877803 0.198228
v 0.624898 1.525321 0.205035
v 0.565925 1.884765 0.207599
v -0.093864 1.208628 -0.006204
v 0.060982 1.614503 0.097215
v 0.169028 1.200762 0.005799
v 0.954916 1.183369 0.019791
v 1.222103 1.574647 0.078327
v 1.332540 1.200243 -0.004544
v 1.391254 1.123832 -0.021462
v 1.192437 1.131021 -0.018931
v 0.855159 1.123832 -0.021462
v 0.647684 1.123832 -0.021462
v -0.216846 1.123869 -0.021448
v -0.003562 1.123832 -0.021462
v 0.214539 1.123832 -0.021462
v 0.430544 1.123832 -0.021462
v 1.097756 3.092792 -0.014258
v 1.134347 2.837846 -0.014416
v 1.173920 2.570781 -0.014416
v 1.215178 2.292338 -0.014416
v 1.365781 1.160804 -0.019750
v 1.317558 1.542090 -0.009465
v 1.286794 1.809015 -0.014416
v 1.250447 2.054317 -0.014416
v 1.057809 3.377087 -0.014993
v 0.834476 3.170966 -0.026455
v 0.338567 2.482719 0.074167
v 0.567330 2.836218 0.060923
v -0.458383 1.137220 -0.019859
v -0.329649 1.438836 -0.008647
v 0.116618 2.139076 0.065934
v -0.107448 1.794802 0.016810
v 0.361288 2.290902 0.107507
v 0.638292 2.261557 0.158850
v 0.925612 2.261731 0.139572
v 1.218703 2.243556 -0.007524
v 0.590205 1.126339 -0.019478
v 0.787767 1.349063 0.123991
v 0.992335 1.703078 0.191161
v 1.240383 2.097939 -0.008462
v 0.255540 2.115589 0.115452
v 0.326190 1.750261 0.167881
v 0.385239 1.375392 0.126247
v 0.460555 1.124979 -0.019619
v 0.705249 2.831357 0.073796
v 0.749374 2.441049 0.143581
v 0.890518 2.973973 0.017308
v 1.119416 2.912427 -0.013121
v 0.903021 2.435281 0.131789
v 1.142966 2.744189 -0.010270
v 0.858470 1.693959 0.208622
v 0.807140 2.075214 0.179064
v 0.488610 1.536111 0.198779
v 0.757417 1.527239 0.197076
v 0.459978 1.718136 0.201820
v 0.669720 2.075056 0.184825
v -0.063999 1.125504 -0.020302
v -0.181556 1.444481 0.024934
v 0.207184 1.594679 0.128955
v -0.078331 1.627830 0.053678
v 0.064659 1.125200 -0.020176
v 0.242534 1.397826 0.101893
v 0.997455 1.124208 -0.020292
v 0.913529 1.361385 0.122699
v 1.303325 1.630044 -0.001448
v 1.037526 1.543298 0.164137
v 1.227206 1.129949 -0.017706
v 1.327625 1.457046 -0.007824
v 0.611961 2.450236 0.129588
v 0.474877 2.465138 0.105573
v 0.588823 2.638650 0.105486
v 0.890300 2.803171 0.061549
v 1.057571 2.738074 0.020107
v 0.892050 2.616984 0.108006
v 1.196940 2.397907 -0.011279
v 1.108385 2.384623 0.048566
v 1.172330 2.561575 -0.010602
v 1.096688 3.064544 -0.014571
v 1.016561 3.063977 -0.013317
v 1.071132 3.236392 -0.021271
v 0.961578 2.073425 0.154130
v 1.166393 2.062595 0.059046
v 0.982901 1.881132 0.177705
v 0.731310 1.690863 0.214421
v 0.596208 1.693609 0.219492
v 0.701968 1.878207 0.205262
v 0.393477 2.090104 0.159161
v 0.531413 2.078053 0.181098
v 0.430386 1.903778 0.190181
v 0.523225 1.348873 0.133576
v 0.658714 1.341048 0.129802
v 0.567664 1.183316 0.019208
v -0.193832 1.125205 -0.021001
v -0.334356 1.132050 -0.018829
v -0.232687 1.214299 -0.014295
v -0.040039 1.450536 0.066362
v 0.097677 1.425753 0.083646
v 0.037722 1.208670 0.001603
v 0.327290 1.124460 -0.020309
v 0.196137 1.124643 -0.020459
v 0.303757 1.193320 0.013732
v 0.184755 1.772668 0.123641
v 0.036929 1.786190 0.070466
v 0.153924 1.950828 0.099823
v 0.836704 1.124585 -0.020550
v 0.715014 1.125387 -0.020382
v 0.818274 1.181648 0.016288
v 1.097074 1.396343 0.105994
v 1.282367 1.416715 0.034175
v 1.160733 1.190303 0.017921
v 1.381712 1.124998 -0.021280
v 1.370676 1.124458 -0.021065
v 1.357964 1.212625 -0.016319
v 1.289453 1.789588 -0.010247
v 1.206849 1.724385 0.086029
v 1.266217 1.939448 -0.007528
v 1.250447 2.054317 -0.014416
v 1.286794 1.809015 -0.014416
v 1.317558 1.542090 -0.009465
v 1.365781 1.160804 -0.019750
v 1.215178 2.292338 -0.014416
v 1.173920 2.570781 -0.014416
v 1.134347 2.837846 -0.014416
v 1.097756 3.092792 -0.014258
v 1.268589 1.931880 -0.014416
v 1.344131 1.324716 -0.015445
v 1.195819 2.422983 -0.014416
v 1.115803 2.962995 -0.014416
v 1.302315 1.676626 -0.011902
v 1.153139 2.711024 -0.014416
v 1.233812 2.166580 -0.014416
v 1.385098 1.123832 -0.021462
v 1.077567 3.241953 -0.020172
vt 0.000000 0.000000
vt 1.000000 0.000000
vt 1.000000 1.000000
vt 0.588649 0.470432
vt 0.665770 0.521274
vt 0.583412 0.530286
vt 0.505747 0.481635
vt 0.512030 0.421012
vt 0.506542 0.541448
vt 0.596835 0.409921
vt 0.671472 0.461365
vt 0.681859 0.400514
vt 0.760222 0.452660
vt 0.841417 0.504694
vt 0.756080 0.513423
vt 0.606488 0.348801
vt 0.521173 0.359470
vt 0.530527 0.297958
vt 0.743757 0.594876
vt 0.821662 0.596809
vt 0.793896 0.665682
vt 0.717855 0.671920
vt 0.660022 0.593246
vt 0.636600 0.683756
vt 0.580738 0.596948
vt 0.722079 0.711885
vt 0.796269 0.699642
vt 0.492895 0.704206
vt 0.569774 0.740782
vt 0.501666 0.750797
vt 0.561663 0.694058
vt 0.641765 0.727735
vt 0.505438 0.606504
vt 0.863416 0.688833
vt 0.863054 0.653320
vt 0.937571 0.668489
vt 0.948111 0.624340
vt 1.000000 0.666002
vt 0.911182 0.572943
vt 0.423555 0.620348
vt 0.340684 0.564485
vt 0.424605 0.553473
vt 0.420315 0.718053
vt 0.341185 0.626149
vt 0.346697 0.727221
vt 0.267202 0.627749
vt 0.199740 0.583673
vt 0.264280 0.572285
vt 0.437557 0.761314
vt 0.263320 0.519834
vt 0.195456 0.530713
vt 0.195155 0.476124
vt 0.264475 0.464050
vt 0.341267 0.508026
vt 0.343933 0.451026
vt 0.424854 0.494864
vt 0.274136 0.406979
vt 0.198980 0.420014
vt 0.208846 0.361337
vt 0.431934 0.376218
vt 0.362965 0.333123
vt 0.444348 0.314030
vt 0.426250 0.435902
vt 0.351966 0.393568
vt 0.286853 0.348742
vt 0.116458 0.433642
vt 0.031374 0.394439
vt 0.126360 0.374904
vt 0.112679 0.490578
vt 0.030177 0.451797
vt 0.030702 0.507124
vt 0.000000 0.404506
vt 0.000007 0.461623
vt 0.115396 0.545012
vt 0.005950 0.116422
vt 0.042877 0.160887
vt 0.005499 0.173554
vt 0.009071 0.054574
vt 0.045394 0.099433
vt 0.054218 0.030592
vt 0.144275 0.056129
vt 0.227260 0.101898
vt 0.148410 0.122998
vt 0.011222 0.000000
vt 0.153248 0.187663
vt 0.230258 0.167972
vt 0.225901 0.231802
vt 0.143559 0.248478
vt 0.042501 0.219136
vt 0.038323 0.276950
vt 0.004252 0.230199
vt 0.133056 0.312306
vt 0.218999 0.296810
vt 0.001034 0.345791
vt 0.002627 0.288054
vt 0.035070 0.336281
vt 0.295600 0.285213
vt 0.300902 0.216937
vt 0.372940 0.269071
vt 0.379534 0.200712
vt 0.455952 0.249757
vt 0.304063 0.149380
vt 0.001179 0.569870
vt 0.034441 0.620117
vt 0.004210 0.640179
vt 0.000001 0.516506
vt 0.030526 0.560806
vt 0.121519 0.598013
vt 0.136322 0.676252
vt 0.200821 0.647306
vt 0.210511 0.732981
vt 0.141398 0.762248
vt 0.041552 0.709879
vt 0.046381 0.787327
vt 0.012378 0.740836
vt 0.157999 0.789360
vt 0.233176 0.781993
vt 0.010689 0.806156
vt 0.052007 0.800920
vt 0.010893 0.811722
vt 0.302184 0.780999
vt 0.273973 0.726976
vt 0.367754 0.771883
vn -0.533830 -0.081637 -0.841609
vn -0.539964 -0.101810 -0.835475
vn -0.343791 -0.078524 -0.935728
vn -0.684805 -0.108707 -0.720542
vn -0.773400 -0.114292 -0.623524
vn -0.834223 -0.125645 -0.536851
vn -0.740684 -0.123264 -0.660421
vn -0.861599 -0.126804 -0.491470
vn -0.651448 -0.106082 -0.751213
vn -0.729942 -0.111057 -0.674398
vn -0.222236 -0.059877 -0.973144
vn 0.035798 -0.008972 -0.999298
vn -0.254402 -0.040742 -0.966216
vn 0.185217 0.001953 -0.982665
vn -0.082247 0.008545 -0.996551
vn -0.980926 -0.138157 -0.136601
vn 0.293710 0.039735 -0.955046
vn -0.773400 -0.128147 -0.620808
vn -0.991028 -0.113865 0.069643
vn -0.888791 -0.079379 -0.451338
vn -0.860469 -0.092166 -0.501053
vn -0.121982 0.396039 -0.910062
vn -0.986938 -0.136631 0.085269
vn 0.038026 -0.029328 0.998840
vn -0.014588 0.143986 -0.989441
vn -0.014618 0.712607 -0.701376
vn 0.000000 -0.046236 0.998901
vn -0.634999 -0.051088 -0.770806
vn -0.916959 -0.103824 0.385174
vn -0.922483 -0.109775 -0.370037
vn -0.980071 -0.146397 -0.134098
vn -0.991638 -0.113895 -0.060457
vn -0.855220 -0.134617 -0.500412
vn -0.915830 -0.140996 -0.375927
vn 0.122501 -0.125065 -0.984527
vn 0.001801 -0.175481 -0.984466
vn -0.013184 -0.112094 -0.993591
vn 0.056825 -0.136021 -0.989044
vn 0.156621 -0.170141 -0.972869
vn -0.063143 -0.103519 -0.992615
vn 0.188360 -0.134648 -0.972808
vn 0.140019 -0.163182 -0.976592
vn 0.202338 -0.155400 -0.966887
vn 0.120518 -0.215644 -0.968993
vn -0.033723 -0.247322 -0.968322
vn -0.006165 -0.235939 -0.971740
vn 0.208960 -0.140507 -0.967772
vn 0.213416 -0.169347 -0.962157
vn 0.246071 -0.154942 -0.956755
vn -0.189581 -0.226600 -0.955351
vn -0.125309 -0.221381 -0.967071
vn -0.162297 -0.123020 -0.979034
vn -0.296152 -0.146825 -0.943754
vn -0.223884 -0.173559 -0.959014
vn -0.406842 -0.122745 -0.905209
vn -0.242439 -0.104434 -0.964507
vn -0.480575 -0.117374 -0.869045
vn -0.461867 -0.098239 -0.881466
vn -0.265419 -0.105686 -0.958312
vn -0.027009 -0.103488 -0.994232
vn 0.074557 -0.039796 -0.996399
vn -0.048067 -0.191931 -0.980224
vn -0.286691 -0.132176 -0.948851
vn -0.096774 -0.091647 -0.991058
vn -0.094394 -0.117588 -0.988556
vn -0.522324 -0.132511 -0.842372
vn -0.290139 -0.111850 -0.950407
vn -0.560656 -0.122349 -0.818934
vn -0.293771 -0.005432 -0.955840
vn -0.113071 0.230140 -0.966552
vn -0.096469 0.019593 -0.995117
vn -0.046663 0.016633 -0.998749
vn -0.071718 0.237861 -0.968627
vn -0.006531 0.228217 -0.973571
vn 0.035951 0.008209 -0.999298
vn -0.037812 -0.083010 -0.995819
vn 0.055879 -0.084323 -0.994842
vn -0.012421 -0.125095 -0.992035
vn 0.183294 0.002197 -0.983032
vn 0.145024 0.189337 -0.971129
vn 0.251869 0.133854 -0.958434
vn 0.211829 -0.162603 -0.963652
vn 0.292825 -0.082247 -0.952605
vn 0.284341 -0.143895 -0.947844
vn 0.094790 -0.149937 -0.984130
vn 0.191534 -0.078249 -0.978332
vn 0.271340 -0.005158 -0.962462
vn 0.059145 0.457442 -0.887234
vn 0.048952 0.520646 -0.852351
vn 0.167760 0.388653 -0.905942
vn -0.035859 0.476760 -0.878262
vn -0.001160 0.562487 -0.826777
vn -0.016449 0.553453 -0.832698
vn 0.000946 0.684378 -0.729087
vn -0.006043 0.596179 -0.802789
vn -0.056215 0.455428 -0.888485
vn 0.014985 0.257851 -0.966033
vn 0.085543 0.185858 -0.978820
vn 0.011994 0.436598 -0.899564
vn 0.009980 0.245277 -0.969390
vn 0.055239 0.086947 -0.994659
vn 0.003876 0.044465 -0.998993
vn 0.146825 0.027833 -0.988739
vn 0.290445 -0.081210 -0.953429
vn 0.230720 0.066042 -0.970763
vn -0.004791 -0.122318 -0.992462
vn 0.204962 0.150182 -0.967162
vn 0.308908 -0.075228 -0.948088
vn 0.250160 -0.000488 -0.968200
vn 0.156285 0.234169 -0.959532
vn 0.064547 0.272134 -0.960082
vn 0.072481 0.345836 -0.935484
vn 0.009033 0.527848 -0.849269
vn 0.189856 0.305734 -0.932981
vn 0.243538 0.083254 -0.966308
vn 0.010712 0.700339 -0.713706
vn 0.013764 0.621448 -0.783288
vn 0.081179 0.436628 -0.895932
vn 0.299875 -0.044984 -0.952910
vn 0.330851 -0.100467 -0.938292
vn 0.336467 -0.089816 -0.937376
vn 0.351878 -0.092044 -0.931486
vn 0.327891 -0.118076 -0.937284
vn 0.334025 -0.129368 -0.933622
vn 0.004273 0.646229 -0.763085
vn -0.030457 0.503861 -0.863216
vn -0.008087 0.770928 -0.636860
vn 0.001892 0.566973 -0.823725
vn -0.001495 0.533616 -0.845698
vn -0.092532 0.413617 -0.905728
vn -0.257637 0.291482 -0.921201
vn -0.297372 0.161840 -0.940916
vn -0.564501 0.016297 -0.825251
vn -0.495987 0.066195 -0.865780
vn -0.119236 0.379162 -0.917600
vn -0.310739 0.117924 -0.943144
vn -0.042360 0.842433 -0.537095
vn -0.103610 0.588946 -0.801477
vn -0.584552 -0.060060 -0.809107
vn -0.002197 0.729698 -0.683737
vn 0.000885 0.513627 -0.857997
vn 0.000397 0.328837 -0.944365
vn 0.000793 0.661000 -0.750359
vn -0.011628 0.027833 -0.999542
vn -0.055025 -0.998230 0.021699
vn -0.000183 0.860530 -0.509354
vn 0.000580 0.846370 -0.532548
vn 0.000671 0.754753 -0.655995
vn 0.000763 0.862575 -0.505905
vn 0.000977 0.657216 -0.753685
vn -0.019868 0.978393 0.205756
vn -0.000366 0.598498 -0.801111
vn 0.009217 0.998718 -0.049715
usemtl pins
s 1
f 9/1/1 87/2/2 85/3/3
f 112/1/4 21/2/5 57/3/6
f 57/1/6 73/2/7 112/3/4
f 73/1/7 57/2/6 5/3/8
f 21/1/5 112/2/4 114/3/9
f 87/1/2 9/2/1 56/3/10
f 56/1/10 114/2/9 87/3/2
f 114/1/9 56/2/10 21/3/5
f 115/1/11 20/2/12 55/3/13
f 55/1/13 85/2/3 115/3/11
f 85/1/3 55/2/13 9/3/1
f 20/1/12 115/2/11 117/3/14
f 62/1/15 1/2/16 54/3/17
f 54/1/17 117/2/14 62/3/15
f 117/1/14 54/2/17 20/3/12
f 5/1/8 77/2/18 73/3/7
f 10/1/19 105/2/20 102/3/21
f 148/1/22 22/2/23 58/3/24
f 58/1/24 46/2/25 148/3/22
f 16/1/26 148/2/22 46/3/25
f 46/1/25 58/2/24 2/3/27
f 22/1/23 148/2/22 150/3/28
f 105/1/20 10/2/19 59/3/29
f 59/1/29 150/2/28 105/3/20
f 150/1/28 59/2/29 22/3/23
f 151/1/30 23/2/31 60/3/32
f 60/1/32 102/2/21 151/3/30
f 102/1/21 60/2/32 10/3/19
f 23/1/31 151/2/30 153/3/33
f 77/1/18 5/2/8 61/3/34
f 61/1/34 153/2/33 77/3/18
f 153/1/33 61/2/34 23/3/31
usemtl Material.001_wood.png.001
f 106/4/35 34/5/36 83/6/37
f 83/6/37 71/7/38 106/4/35
f 28/8/39 106/4/35 71/7/38
f 71/7/38 83/6/37 13/9/40
f 106/4/35 28/8/39 107/10/41
f 107/10/41 108/11/42 106/4/35
f 34/5/36 106/4/35 108/11/42
f 108/11/42 107/10/41 25/12/43
f 65/13/44 11/14/45 82/15/46
f 82/15/46 108/11/42 65/13/44
f 25/12/43 65/13/44 108/11/42
f 108/11/42 82/15/46 34/5/36
f 64/16/47 25/12/43 107/10/41
f 107/10/41 70/17/48 64/16/47
f 6/18/49 64/16/47 70/17/48
f 70/17/48 107/10/41 28/8/39
f 109/19/50 34/5/36 82/15/46
f 82/15/46 84/20/51 109/19/50
f 35/21/52 109/19/50 84/20/51
f 84/20/51 82/15/46 11/14/45
f 109/19/50 35/21/52 110/22/53
f 110/22/53 111/23/54 109/19/50
f 34/5/36 109/19/50 111/23/54
f 111/23/54 110/22/53 36/24/55
f 86/25/56 13/9/40 83/6/37
f 83/6/37 111/23/54 86/25/56
f 36/24/55 86/25/56 111/23/54
f 111/23/54 83/6/37 34/5/36
f 87/26/2 36/24/55 110/22/53
f 110/22/53 85/27/3 87/26/2
f 85/27/3 110/22/53 35/21/52
f 29/28/57 112/29/4 73/30/7
f 112/29/4 29/28/57 113/31/58
f 113/31/58 114/32/9 112/29/4
f 114/32/9 113/31/58 36/24/55
f 36/24/55 87/26/2 114/32/9
f 86/25/56 36/24/55 113/31/58
f 113/31/58 72/33/59 86/25/56
f 13/9/40 86/25/56 72/33/59
f 72/33/59 113/31/58 29/28/57
f 35/21/52 115/34/11 85/27/3
f 115/34/11 35/21/52 116/35/60
f 116/35/60 117/36/14 115/34/11
f 117/36/14 116/35/60 24/37/61
f 24/37/61 62/38/15 117/36/14
f 63/39/62 24/37/61 116/35/60
f 116/35/60 84/20/51 63/39/62
f 11/14/45 63/39/62 84/20/51
f 84/20/51 116/35/60 35/21/52
f 118/40/63 37/41/64 89/42/65
f 89/42/65 72/33/59 118/40/63
f 29/28/57 118/40/63 72/33/59
f 72/33/59 89/42/65 13/9/40
f 118/40/63 29/28/57 119/43/66
f 119/43/66 120/44/67 118/40/63
f 37/41/64 118/40/63 120/44/67
f 120/44/67 119/43/66 31/45/68
f 76/46/69 14/47/70 88/48/71
f 88/48/71 120/44/67 76/46/69
f 31/45/68 76/46/69 120/44/67
f 120/44/67 88/48/71 37/41/64
f 77/49/18 31/45/68 119/43/66
f 119/43/66 73/30/7 77/49/18
f 73/30/7 119/43/66 29/28/57
f 121/50/72 37/41/64 88/48/71
f 88/48/71 91/51/73 121/50/72
f 38/52/74 121/50/72 91/51/73
f 91/51/73 88/48/71 14/47/70
f 121/50/72 38/52/74 122/53/75
f 122/53/75 123/54/76 121/50/72
f 37/41/64 121/50/72 123/54/76
f 123/54/76 122/53/75 39/55/77
f 93/56/78 13/9/40 89/42/65
f 89/42/65 123/54/76 93/56/78
f 39/55/77 93/56/78 123/54/76
f 123/54/76 89/42/65 37/41/64
f 92/57/79 39/55/77 122/53/75
f 122/53/75 90/58/80 92/57/79
f 15/59/81 92/57/79 90/58/80
f 90/58/80 122/53/75 38/52/74
f 124/60/82 32/61/83 78/62/84
f 78/62/84 70/17/48 124/60/82
f 28/8/39 124/60/82 70/17/48
f 70/17/48 78/62/84 6/18/49
f 124/60/82 28/8/39 125/63/85
f 125/63/85 126/64/86 124/60/82
f 32/61/83 124/60/82 126/64/86
f 126/64/86 125/63/85 39/55/77
f 92/57/79 15/59/81 79/65/87
f 79/65/87 126/64/86 92/57/79
f 39/55/77 92/57/79 126/64/86
f 126/64/86 79/65/87 32/61/83
f 93/56/78 39/55/77 125/63/85
f 125/63/85 71/7/38 93/56/78
f 13/9/40 93/56/78 71/7/38
f 71/7/38 125/63/85 28/8/39
f 127/66/88 33/67/89 80/68/90
f 80/68/90 90/58/80 127/66/88
f 38/52/74 127/66/88 90/58/80
f 90/58/80 80/68/90 15/59/81
f 127/66/88 38/52/74 128/69/91
f 128/69/91 129/70/92 127/66/88
f 33/67/89 127/66/88 129/70/92
f 129/70/92 128/69/91 30/71/93
f 81/72/94 129/70/92 74/73/95
f 30/71/93 74/73/95 129/70/92
f 129/70/92 81/72/94 33/67/89
f 75/74/96 30/71/93 128/69/91
f 128/69/91 91/51/73 75/74/96
f 14/47/70 75/74/96 91/51/73
f 91/51/73 128/69/91 38/52/74
f 130/75/97 40/76/98 94/77/99
f 131/78/100 132/79/101 130/75/97
f 40/76/98 130/75/97 132/79/101
f 132/79/101 131/78/100 26/80/102
f 67/81/103 12/82/104 95/83/105
f 95/83/105 132/79/101 67/81/103
f 26/80/102 67/81/103 132/79/101
f 132/79/101 95/83/105 40/76/98
f 66/84/106 26/80/102 131/78/100
f 133/85/107 40/76/98 95/83/105
f 95/83/105 97/86/108 133/85/107
f 41/87/109 133/85/107 97/86/108
f 97/86/108 95/83/105 12/82/104
f 133/85/107 41/87/109 134/88/110
f 134/88/110 135/89/111 133/85/107
f 40/76/98 133/85/107 135/89/111
f 135/89/111 134/88/110 42/90/112
f 94/77/99 135/89/111 98/91/113
f 42/90/112 98/91/113 135/89/111
f 135/89/111 94/77/99 40/76/98
f 99/92/114 42/90/112 134/88/110
f 134/88/110 96/93/115 99/92/114
f 15/59/81 99/92/114 96/93/115
f 96/93/115 134/88/110 41/87/109
f 136/94/116 33/67/89 81/72/94
f 137/95/117 138/96/118 136/94/116
f 33/67/89 136/94/116 138/96/118
f 138/96/118 137/95/117 42/90/112
f 99/92/114 15/59/81 80/68/90
f 80/68/90 138/96/118 99/92/114
f 42/90/112 99/92/114 138/96/118
f 138/96/118 80/68/90 33/67/89
f 98/91/113 42/90/112 137/95/117
f 139/97/119 32/61/83 79/65/87
f 79/65/87 96/93/115 139/97/119
f 41/87/109 139/97/119 96/93/115
f 96/93/115 79/65/87 15/59/81
f 139/97/119 41/87/109 140/98/120
f 140/98/120 141/99/121 139/97/119
f 32/61/83 139/97/119 141/99/121
f 141/99/121 140/98/120 27/100/122
f 68/101/123 6/18/49 78/62/84
f 78/62/84 141/99/121 68/101/123
f 27/100/122 68/101/123 141/99/121
f 141/99/121 78/62/84 32/61/83
f 69/102/124 27/100/122 140/98/120
f 140/98/120 97/86/108 69/102/124
f 12/82/104 69/102/124 97/86/108
f 97/86/108 140/98/120 41/87/109
f 142/103/125 43/104/126 100/105/127
f 143/106/128 144/107/129 142/103/125
f 43/104/126 142/103/125 144/107/129
f 144/107/129 143/106/128 30/71/93
f 75/74/96 14/47/70 101/108/130
f 101/108/130 144/107/129 75/74/96
f 30/71/93 75/74/96 144/107/129
f 144/107/129 101/108/130 43/104/126
f 74/73/95 30/71/93 143/106/128
f 145/109/131 43/104/126 101/108/130
f 101/108/130 103/110/132 145/109/131
f 44/111/133 145/109/131 103/110/132
f 103/110/132 101/108/130 14/47/70
f 145/109/131 44/111/133 146/112/134
f 146/112/134 147/113/135 145/109/131
f 43/104/126 145/109/131 147/113/135
f 147/113/135 146/112/134 45/114/136
f 100/105/127 147/113/135 104/115/137
f 45/114/136 104/115/137 147/113/135
f 147/113/135 100/105/127 43/104/126
f 105/116/20 45/114/136 146/112/134
f 146/112/134 102/117/21 105/116/20
f 102/117/21 146/112/134 44/111/133
f 149/118/138 150/119/28 148/120/22
f 150/119/28 149/118/138 45/114/136
f 45/114/136 105/116/20 150/119/28
f 104/115/137 45/114/136 149/118/138
f 44/111/133 151/121/30 102/117/21
f 151/121/30 44/111/133 152/122/139
f 152/122/139 153/123/33 151/121/30
f 153/123/33 152/122/139 31/45/68
f 31/45/68 77/49/18 153/123/33
f 76/46/69 31/45/68 152/122/139
f 152/122/139 103/110/132 76/46/69
f 14/47/70 76/46/69 103/110/132
f 103/110/132 152/122/139 44/111/133
usemtl bompins
f 74/1/95 4/2/140 81/3/94
f 94/1/99 51/2/141 130/3/97
f 18/1/142 130/2/97 51/3/141
f 51/1/141 94/2/99 8/3/143
f 130/1/97 18/2/142 131/3/100
f 131/1/100 50/2/144 66/3/106
f 3/1/145 66/2/106 50/3/144
f 50/1/144 131/2/100 18/3/142
f 98/1/113 8/2/143 94/3/99
f 81/1/94 53/2/146 136/3/116
f 19/1/147 136/2/116 53/3/146
f 53/1/146 81/2/94 4/3/140
f 136/1/116 19/2/147 137/3/117
f 137/1/117 52/2/148 98/3/113
f 8/1/143 98/2/113 52/3/148
f 52/1/148 137/2/117 19/3/147
f 100/1/127 48/2/149 142/3/125
f 17/1/150 142/2/125 48/3/149
f 48/1/149 100/2/127 7/3/151
f 142/1/125 17/2/150 143/3/128
f 143/1/128 49/2/152 74/3/95
f 4/1/140 74/2/95 49/3/152
f 49/1/152 143/2/128 17/3/150
f 104/1/137 7/2/151 100/3/127
f 148/1/22 16/2/26 149/3/138
f 149/1/138 47/2/153 104/3/137
f 7/1/151 104/2/137 47/3/153
f 47/1/153 149/2/138 16/3/26
